%TF.GenerationSoftware,KiCad,Pcbnew,(6.0.7)*%
%TF.CreationDate,2023-04-11T10:27:19+03:00*%
%TF.ProjectId,ITR-3,4954522d-332e-46b6-9963-61645f706362,rev?*%
%TF.SameCoordinates,Original*%
%TF.FileFunction,Legend,Bot*%
%TF.FilePolarity,Positive*%
%FSLAX46Y46*%
G04 Gerber Fmt 4.6, Leading zero omitted, Abs format (unit mm)*
G04 Created by KiCad (PCBNEW (6.0.7)) date 2023-04-11 10:27:19*
%MOMM*%
%LPD*%
G01*
G04 APERTURE LIST*
%ADD10C,0.200000*%
%ADD11C,0.150000*%
%ADD12C,0.300000*%
G04 APERTURE END LIST*
D10*
%TO.C,X1*%
X85059523Y-77452380D02*
X84392857Y-78452380D01*
X84392857Y-77452380D02*
X85059523Y-78452380D01*
X83488095Y-78452380D02*
X84059523Y-78452380D01*
X83773809Y-78452380D02*
X83773809Y-77452380D01*
X83869047Y-77595238D01*
X83964285Y-77690476D01*
X84059523Y-77738095D01*
D11*
%TO.C,XP1*%
X53547619Y-87811904D02*
X53014285Y-88611904D01*
X53014285Y-87811904D02*
X53547619Y-88611904D01*
X52709523Y-88611904D02*
X52709523Y-87811904D01*
X52404761Y-87811904D01*
X52328571Y-87850000D01*
X52290476Y-87888095D01*
X52252380Y-87964285D01*
X52252380Y-88078571D01*
X52290476Y-88154761D01*
X52328571Y-88192857D01*
X52404761Y-88230952D01*
X52709523Y-88230952D01*
X51490476Y-88611904D02*
X51947619Y-88611904D01*
X51719047Y-88611904D02*
X51719047Y-87811904D01*
X51795238Y-87926190D01*
X51871428Y-88002380D01*
X51947619Y-88040476D01*
D12*
%TO.C,X1*%
X88750000Y-76750000D02*
X88750000Y-77500000D01*
X86250000Y-86940000D02*
X87000000Y-86940000D01*
X88000000Y-86940000D02*
X88750000Y-86940000D01*
X88750000Y-86940000D02*
X88750000Y-86190000D01*
X88000000Y-76750000D02*
X88750000Y-76750000D01*
X86250000Y-76750000D02*
X87000000Y-76750000D01*
X86250000Y-76750000D02*
X86250000Y-77500000D01*
X86250000Y-86190000D02*
X86250000Y-86940000D01*
D10*
%TO.C,XP1*%
X52000000Y-97000000D02*
X51000000Y-97000000D01*
X51000000Y-97000000D02*
X51000000Y-96000000D01*
X54000000Y-89000000D02*
X54000000Y-90000000D01*
X54000000Y-97000000D02*
X53000000Y-97000000D01*
X51000000Y-90000000D02*
X51000000Y-89000000D01*
X54000000Y-97000000D02*
X54000000Y-96000000D01*
X53000000Y-89000000D02*
X54000000Y-89000000D01*
X51000000Y-89000000D02*
X52000000Y-89000000D01*
%TD*%
M02*
