M48
; DRILL file {KiCad (6.0.7)} date Tue Apr 11 10:28:14 2023
; FORMAT={3:3/ absolute / metric / keep zeros}
; #@! TF.CreationDate,2023-04-11T10:28:14+03:00
; #@! TF.GenerationSoftware,Kicad,Pcbnew,(6.0.7)
; #@! TF.FileFunction,Plated,1,2,PTH
FMAT,2
METRIC
; #@! TA.AperFunction,Plated,PTH,ViaDrill
T1C0.400
; #@! TA.AperFunction,Plated,PTH,ComponentDrill
T2C1.000
%
G90
G05
T1
X053750Y-076750
X053750Y-085750
X055000Y-097500
X055155Y-085732
X056250Y-089000
X057250Y-076250
X057405Y-083482
X057500Y-089000
X057500Y-095500
X059250Y-076750
X064250Y-085250
X066750Y-084250
X066750Y-093000
X071000Y-080750
X072500Y-079250
X072500Y-080750
X075500Y-093750
X076250Y-084250
X076250Y-086500
X076250Y-088250
X076250Y-090750
X077000Y-093750
X077000Y-096250
X077000Y-097500
X077750Y-084500
X078500Y-082500
X078750Y-088750
X080500Y-097750
X080750Y-079750
X080750Y-084500
X080750Y-088750
X081000Y-076750
X081500Y-092750
X083500Y-079250
X083750Y-089750
X085000Y-097750
T2
X052500Y-090500
X052500Y-093040
X052500Y-095580
X087500Y-078000
X087500Y-080540
X087500Y-083080
X087500Y-085620
T0
M30
