%TF.GenerationSoftware,KiCad,Pcbnew,(6.0.7)*%
%TF.CreationDate,2023-04-11T10:27:19+03:00*%
%TF.ProjectId,ITR-3,4954522d-332e-46b6-9963-61645f706362,rev?*%
%TF.SameCoordinates,Original*%
%TF.FileFunction,Legend,Top*%
%TF.FilePolarity,Positive*%
%FSLAX46Y46*%
G04 Gerber Fmt 4.6, Leading zero omitted, Abs format (unit mm)*
G04 Created by KiCad (PCBNEW (6.0.7)) date 2023-04-11 10:27:19*
%MOMM*%
%LPD*%
G01*
G04 APERTURE LIST*
%ADD10C,0.150000*%
G04 APERTURE END LIST*
D10*
%TO.C,VD4*%
X71921428Y-84535714D02*
X72521428Y-84335714D01*
X71921428Y-84135714D01*
X72521428Y-83935714D02*
X71921428Y-83935714D01*
X71921428Y-83792857D01*
X71950000Y-83707142D01*
X72007142Y-83650000D01*
X72064285Y-83621428D01*
X72178571Y-83592857D01*
X72264285Y-83592857D01*
X72378571Y-83621428D01*
X72435714Y-83650000D01*
X72492857Y-83707142D01*
X72521428Y-83792857D01*
X72521428Y-83935714D01*
X72121428Y-83078571D02*
X72521428Y-83078571D01*
X71892857Y-83221428D02*
X72321428Y-83364285D01*
X72321428Y-82992857D01*
%TO.C,VD3*%
X71921428Y-89035714D02*
X72521428Y-88835714D01*
X71921428Y-88635714D01*
X72521428Y-88435714D02*
X71921428Y-88435714D01*
X71921428Y-88292857D01*
X71950000Y-88207142D01*
X72007142Y-88150000D01*
X72064285Y-88121428D01*
X72178571Y-88092857D01*
X72264285Y-88092857D01*
X72378571Y-88121428D01*
X72435714Y-88150000D01*
X72492857Y-88207142D01*
X72521428Y-88292857D01*
X72521428Y-88435714D01*
X71921428Y-87892857D02*
X71921428Y-87521428D01*
X72150000Y-87721428D01*
X72150000Y-87635714D01*
X72178571Y-87578571D01*
X72207142Y-87550000D01*
X72264285Y-87521428D01*
X72407142Y-87521428D01*
X72464285Y-87550000D01*
X72492857Y-87578571D01*
X72521428Y-87635714D01*
X72521428Y-87807142D01*
X72492857Y-87864285D01*
X72464285Y-87892857D01*
%TO.C,R15*%
X83614285Y-90771428D02*
X83414285Y-90485714D01*
X83271428Y-90771428D02*
X83271428Y-90171428D01*
X83500000Y-90171428D01*
X83557142Y-90200000D01*
X83585714Y-90228571D01*
X83614285Y-90285714D01*
X83614285Y-90371428D01*
X83585714Y-90428571D01*
X83557142Y-90457142D01*
X83500000Y-90485714D01*
X83271428Y-90485714D01*
X84185714Y-90771428D02*
X83842857Y-90771428D01*
X84014285Y-90771428D02*
X84014285Y-90171428D01*
X83957142Y-90257142D01*
X83900000Y-90314285D01*
X83842857Y-90342857D01*
X84728571Y-90171428D02*
X84442857Y-90171428D01*
X84414285Y-90457142D01*
X84442857Y-90428571D01*
X84500000Y-90400000D01*
X84642857Y-90400000D01*
X84700000Y-90428571D01*
X84728571Y-90457142D01*
X84757142Y-90514285D01*
X84757142Y-90657142D01*
X84728571Y-90714285D01*
X84700000Y-90742857D01*
X84642857Y-90771428D01*
X84500000Y-90771428D01*
X84442857Y-90742857D01*
X84414285Y-90714285D01*
%TO.C,R13*%
X84364285Y-79271428D02*
X84164285Y-78985714D01*
X84021428Y-79271428D02*
X84021428Y-78671428D01*
X84250000Y-78671428D01*
X84307142Y-78700000D01*
X84335714Y-78728571D01*
X84364285Y-78785714D01*
X84364285Y-78871428D01*
X84335714Y-78928571D01*
X84307142Y-78957142D01*
X84250000Y-78985714D01*
X84021428Y-78985714D01*
X84935714Y-79271428D02*
X84592857Y-79271428D01*
X84764285Y-79271428D02*
X84764285Y-78671428D01*
X84707142Y-78757142D01*
X84650000Y-78814285D01*
X84592857Y-78842857D01*
X85135714Y-78671428D02*
X85507142Y-78671428D01*
X85307142Y-78900000D01*
X85392857Y-78900000D01*
X85450000Y-78928571D01*
X85478571Y-78957142D01*
X85507142Y-79014285D01*
X85507142Y-79157142D01*
X85478571Y-79214285D01*
X85450000Y-79242857D01*
X85392857Y-79271428D01*
X85221428Y-79271428D01*
X85164285Y-79242857D01*
X85135714Y-79214285D01*
%TO.C,VT3*%
X66035714Y-89921428D02*
X66235714Y-90521428D01*
X66435714Y-89921428D01*
X66550000Y-89921428D02*
X66892857Y-89921428D01*
X66721428Y-90521428D02*
X66721428Y-89921428D01*
X67035714Y-89921428D02*
X67407142Y-89921428D01*
X67207142Y-90150000D01*
X67292857Y-90150000D01*
X67350000Y-90178571D01*
X67378571Y-90207142D01*
X67407142Y-90264285D01*
X67407142Y-90407142D01*
X67378571Y-90464285D01*
X67350000Y-90492857D01*
X67292857Y-90521428D01*
X67121428Y-90521428D01*
X67064285Y-90492857D01*
X67035714Y-90464285D01*
%TO.C,C2*%
X74464285Y-82600000D02*
X74492857Y-82628571D01*
X74521428Y-82714285D01*
X74521428Y-82771428D01*
X74492857Y-82857142D01*
X74435714Y-82914285D01*
X74378571Y-82942857D01*
X74264285Y-82971428D01*
X74178571Y-82971428D01*
X74064285Y-82942857D01*
X74007142Y-82914285D01*
X73950000Y-82857142D01*
X73921428Y-82771428D01*
X73921428Y-82714285D01*
X73950000Y-82628571D01*
X73978571Y-82600000D01*
X73978571Y-82371428D02*
X73950000Y-82342857D01*
X73921428Y-82285714D01*
X73921428Y-82142857D01*
X73950000Y-82085714D01*
X73978571Y-82057142D01*
X74035714Y-82028571D01*
X74092857Y-82028571D01*
X74178571Y-82057142D01*
X74521428Y-82400000D01*
X74521428Y-82028571D01*
%TO.C,R2*%
X64021428Y-86350000D02*
X63735714Y-86550000D01*
X64021428Y-86692857D02*
X63421428Y-86692857D01*
X63421428Y-86464285D01*
X63450000Y-86407142D01*
X63478571Y-86378571D01*
X63535714Y-86350000D01*
X63621428Y-86350000D01*
X63678571Y-86378571D01*
X63707142Y-86407142D01*
X63735714Y-86464285D01*
X63735714Y-86692857D01*
X63478571Y-86121428D02*
X63450000Y-86092857D01*
X63421428Y-86035714D01*
X63421428Y-85892857D01*
X63450000Y-85835714D01*
X63478571Y-85807142D01*
X63535714Y-85778571D01*
X63592857Y-85778571D01*
X63678571Y-85807142D01*
X64021428Y-86150000D01*
X64021428Y-85778571D01*
%TO.C,VD1*%
X62171428Y-89285714D02*
X62771428Y-89085714D01*
X62171428Y-88885714D01*
X62771428Y-88685714D02*
X62171428Y-88685714D01*
X62171428Y-88542857D01*
X62200000Y-88457142D01*
X62257142Y-88400000D01*
X62314285Y-88371428D01*
X62428571Y-88342857D01*
X62514285Y-88342857D01*
X62628571Y-88371428D01*
X62685714Y-88400000D01*
X62742857Y-88457142D01*
X62771428Y-88542857D01*
X62771428Y-88685714D01*
X62771428Y-87771428D02*
X62771428Y-88114285D01*
X62771428Y-87942857D02*
X62171428Y-87942857D01*
X62257142Y-88000000D01*
X62314285Y-88057142D01*
X62342857Y-88114285D01*
%TO.C,VT6*%
X70535714Y-81171428D02*
X70735714Y-81771428D01*
X70935714Y-81171428D01*
X71050000Y-81171428D02*
X71392857Y-81171428D01*
X71221428Y-81771428D02*
X71221428Y-81171428D01*
X71850000Y-81171428D02*
X71735714Y-81171428D01*
X71678571Y-81200000D01*
X71650000Y-81228571D01*
X71592857Y-81314285D01*
X71564285Y-81428571D01*
X71564285Y-81657142D01*
X71592857Y-81714285D01*
X71621428Y-81742857D01*
X71678571Y-81771428D01*
X71792857Y-81771428D01*
X71850000Y-81742857D01*
X71878571Y-81714285D01*
X71907142Y-81657142D01*
X71907142Y-81514285D01*
X71878571Y-81457142D01*
X71850000Y-81428571D01*
X71792857Y-81400000D01*
X71678571Y-81400000D01*
X71621428Y-81428571D01*
X71592857Y-81457142D01*
X71564285Y-81514285D01*
%TO.C,R1*%
X77650000Y-89021428D02*
X77450000Y-88735714D01*
X77307142Y-89021428D02*
X77307142Y-88421428D01*
X77535714Y-88421428D01*
X77592857Y-88450000D01*
X77621428Y-88478571D01*
X77650000Y-88535714D01*
X77650000Y-88621428D01*
X77621428Y-88678571D01*
X77592857Y-88707142D01*
X77535714Y-88735714D01*
X77307142Y-88735714D01*
X78221428Y-89021428D02*
X77878571Y-89021428D01*
X78050000Y-89021428D02*
X78050000Y-88421428D01*
X77992857Y-88507142D01*
X77935714Y-88564285D01*
X77878571Y-88592857D01*
%TO.C,R8*%
X57400000Y-92021428D02*
X57200000Y-91735714D01*
X57057142Y-92021428D02*
X57057142Y-91421428D01*
X57285714Y-91421428D01*
X57342857Y-91450000D01*
X57371428Y-91478571D01*
X57400000Y-91535714D01*
X57400000Y-91621428D01*
X57371428Y-91678571D01*
X57342857Y-91707142D01*
X57285714Y-91735714D01*
X57057142Y-91735714D01*
X57742857Y-91678571D02*
X57685714Y-91650000D01*
X57657142Y-91621428D01*
X57628571Y-91564285D01*
X57628571Y-91535714D01*
X57657142Y-91478571D01*
X57685714Y-91450000D01*
X57742857Y-91421428D01*
X57857142Y-91421428D01*
X57914285Y-91450000D01*
X57942857Y-91478571D01*
X57971428Y-91535714D01*
X57971428Y-91564285D01*
X57942857Y-91621428D01*
X57914285Y-91650000D01*
X57857142Y-91678571D01*
X57742857Y-91678571D01*
X57685714Y-91707142D01*
X57657142Y-91735714D01*
X57628571Y-91792857D01*
X57628571Y-91907142D01*
X57657142Y-91964285D01*
X57685714Y-91992857D01*
X57742857Y-92021428D01*
X57857142Y-92021428D01*
X57914285Y-91992857D01*
X57942857Y-91964285D01*
X57971428Y-91907142D01*
X57971428Y-91792857D01*
X57942857Y-91735714D01*
X57914285Y-91707142D01*
X57857142Y-91678571D01*
%TO.C,R16*%
X84614285Y-93771428D02*
X84414285Y-93485714D01*
X84271428Y-93771428D02*
X84271428Y-93171428D01*
X84500000Y-93171428D01*
X84557142Y-93200000D01*
X84585714Y-93228571D01*
X84614285Y-93285714D01*
X84614285Y-93371428D01*
X84585714Y-93428571D01*
X84557142Y-93457142D01*
X84500000Y-93485714D01*
X84271428Y-93485714D01*
X85185714Y-93771428D02*
X84842857Y-93771428D01*
X85014285Y-93771428D02*
X85014285Y-93171428D01*
X84957142Y-93257142D01*
X84900000Y-93314285D01*
X84842857Y-93342857D01*
X85700000Y-93171428D02*
X85585714Y-93171428D01*
X85528571Y-93200000D01*
X85500000Y-93228571D01*
X85442857Y-93314285D01*
X85414285Y-93428571D01*
X85414285Y-93657142D01*
X85442857Y-93714285D01*
X85471428Y-93742857D01*
X85528571Y-93771428D01*
X85642857Y-93771428D01*
X85700000Y-93742857D01*
X85728571Y-93714285D01*
X85757142Y-93657142D01*
X85757142Y-93514285D01*
X85728571Y-93457142D01*
X85700000Y-93428571D01*
X85642857Y-93400000D01*
X85528571Y-93400000D01*
X85471428Y-93428571D01*
X85442857Y-93457142D01*
X85414285Y-93514285D01*
%TO.C,DA3*%
X72771428Y-77950000D02*
X72171428Y-77950000D01*
X72171428Y-77807142D01*
X72200000Y-77721428D01*
X72257142Y-77664285D01*
X72314285Y-77635714D01*
X72428571Y-77607142D01*
X72514285Y-77607142D01*
X72628571Y-77635714D01*
X72685714Y-77664285D01*
X72742857Y-77721428D01*
X72771428Y-77807142D01*
X72771428Y-77950000D01*
X72600000Y-77378571D02*
X72600000Y-77092857D01*
X72771428Y-77435714D02*
X72171428Y-77235714D01*
X72771428Y-77035714D01*
X72171428Y-76892857D02*
X72171428Y-76521428D01*
X72400000Y-76721428D01*
X72400000Y-76635714D01*
X72428571Y-76578571D01*
X72457142Y-76550000D01*
X72514285Y-76521428D01*
X72657142Y-76521428D01*
X72714285Y-76550000D01*
X72742857Y-76578571D01*
X72771428Y-76635714D01*
X72771428Y-76807142D01*
X72742857Y-76864285D01*
X72714285Y-76892857D01*
%TO.C,VT5*%
X66035714Y-81171428D02*
X66235714Y-81771428D01*
X66435714Y-81171428D01*
X66550000Y-81171428D02*
X66892857Y-81171428D01*
X66721428Y-81771428D02*
X66721428Y-81171428D01*
X67378571Y-81171428D02*
X67092857Y-81171428D01*
X67064285Y-81457142D01*
X67092857Y-81428571D01*
X67150000Y-81400000D01*
X67292857Y-81400000D01*
X67350000Y-81428571D01*
X67378571Y-81457142D01*
X67407142Y-81514285D01*
X67407142Y-81657142D01*
X67378571Y-81714285D01*
X67350000Y-81742857D01*
X67292857Y-81771428D01*
X67150000Y-81771428D01*
X67092857Y-81742857D01*
X67064285Y-81714285D01*
%TO.C,R9*%
X60150000Y-81521428D02*
X59950000Y-81235714D01*
X59807142Y-81521428D02*
X59807142Y-80921428D01*
X60035714Y-80921428D01*
X60092857Y-80950000D01*
X60121428Y-80978571D01*
X60150000Y-81035714D01*
X60150000Y-81121428D01*
X60121428Y-81178571D01*
X60092857Y-81207142D01*
X60035714Y-81235714D01*
X59807142Y-81235714D01*
X60435714Y-81521428D02*
X60550000Y-81521428D01*
X60607142Y-81492857D01*
X60635714Y-81464285D01*
X60692857Y-81378571D01*
X60721428Y-81264285D01*
X60721428Y-81035714D01*
X60692857Y-80978571D01*
X60664285Y-80950000D01*
X60607142Y-80921428D01*
X60492857Y-80921428D01*
X60435714Y-80950000D01*
X60407142Y-80978571D01*
X60378571Y-81035714D01*
X60378571Y-81178571D01*
X60407142Y-81235714D01*
X60435714Y-81264285D01*
X60492857Y-81292857D01*
X60607142Y-81292857D01*
X60664285Y-81264285D01*
X60692857Y-81235714D01*
X60721428Y-81178571D01*
%TO.C,VT2*%
X59535714Y-76421428D02*
X59735714Y-77021428D01*
X59935714Y-76421428D01*
X60050000Y-76421428D02*
X60392857Y-76421428D01*
X60221428Y-77021428D02*
X60221428Y-76421428D01*
X60564285Y-76478571D02*
X60592857Y-76450000D01*
X60650000Y-76421428D01*
X60792857Y-76421428D01*
X60850000Y-76450000D01*
X60878571Y-76478571D01*
X60907142Y-76535714D01*
X60907142Y-76592857D01*
X60878571Y-76678571D01*
X60535714Y-77021428D01*
X60907142Y-77021428D01*
%TO.C,DA1*%
X55550000Y-80771428D02*
X55550000Y-80171428D01*
X55692857Y-80171428D01*
X55778571Y-80200000D01*
X55835714Y-80257142D01*
X55864285Y-80314285D01*
X55892857Y-80428571D01*
X55892857Y-80514285D01*
X55864285Y-80628571D01*
X55835714Y-80685714D01*
X55778571Y-80742857D01*
X55692857Y-80771428D01*
X55550000Y-80771428D01*
X56121428Y-80600000D02*
X56407142Y-80600000D01*
X56064285Y-80771428D02*
X56264285Y-80171428D01*
X56464285Y-80771428D01*
X56978571Y-80771428D02*
X56635714Y-80771428D01*
X56807142Y-80771428D02*
X56807142Y-80171428D01*
X56750000Y-80257142D01*
X56692857Y-80314285D01*
X56635714Y-80342857D01*
%TO.C,VD2*%
X62171428Y-80535714D02*
X62771428Y-80335714D01*
X62171428Y-80135714D01*
X62771428Y-79935714D02*
X62171428Y-79935714D01*
X62171428Y-79792857D01*
X62200000Y-79707142D01*
X62257142Y-79650000D01*
X62314285Y-79621428D01*
X62428571Y-79592857D01*
X62514285Y-79592857D01*
X62628571Y-79621428D01*
X62685714Y-79650000D01*
X62742857Y-79707142D01*
X62771428Y-79792857D01*
X62771428Y-79935714D01*
X62228571Y-79364285D02*
X62200000Y-79335714D01*
X62171428Y-79278571D01*
X62171428Y-79135714D01*
X62200000Y-79078571D01*
X62228571Y-79050000D01*
X62285714Y-79021428D01*
X62342857Y-79021428D01*
X62428571Y-79050000D01*
X62771428Y-79392857D01*
X62771428Y-79021428D01*
%TO.C,C1*%
X54650000Y-76714285D02*
X54621428Y-76742857D01*
X54535714Y-76771428D01*
X54478571Y-76771428D01*
X54392857Y-76742857D01*
X54335714Y-76685714D01*
X54307142Y-76628571D01*
X54278571Y-76514285D01*
X54278571Y-76428571D01*
X54307142Y-76314285D01*
X54335714Y-76257142D01*
X54392857Y-76200000D01*
X54478571Y-76171428D01*
X54535714Y-76171428D01*
X54621428Y-76200000D01*
X54650000Y-76228571D01*
X55221428Y-76771428D02*
X54878571Y-76771428D01*
X55050000Y-76771428D02*
X55050000Y-76171428D01*
X54992857Y-76257142D01*
X54935714Y-76314285D01*
X54878571Y-76342857D01*
%TO.C,VD6*%
X81714285Y-83321428D02*
X81914285Y-83921428D01*
X82114285Y-83321428D01*
X82314285Y-83921428D02*
X82314285Y-83321428D01*
X82457142Y-83321428D01*
X82542857Y-83350000D01*
X82600000Y-83407142D01*
X82628571Y-83464285D01*
X82657142Y-83578571D01*
X82657142Y-83664285D01*
X82628571Y-83778571D01*
X82600000Y-83835714D01*
X82542857Y-83892857D01*
X82457142Y-83921428D01*
X82314285Y-83921428D01*
X83171428Y-83321428D02*
X83057142Y-83321428D01*
X83000000Y-83350000D01*
X82971428Y-83378571D01*
X82914285Y-83464285D01*
X82885714Y-83578571D01*
X82885714Y-83807142D01*
X82914285Y-83864285D01*
X82942857Y-83892857D01*
X83000000Y-83921428D01*
X83114285Y-83921428D01*
X83171428Y-83892857D01*
X83200000Y-83864285D01*
X83228571Y-83807142D01*
X83228571Y-83664285D01*
X83200000Y-83607142D01*
X83171428Y-83578571D01*
X83114285Y-83550000D01*
X83000000Y-83550000D01*
X82942857Y-83578571D01*
X82914285Y-83607142D01*
X82885714Y-83664285D01*
%TO.C,R10*%
X67271428Y-94885714D02*
X66985714Y-95085714D01*
X67271428Y-95228571D02*
X66671428Y-95228571D01*
X66671428Y-95000000D01*
X66700000Y-94942857D01*
X66728571Y-94914285D01*
X66785714Y-94885714D01*
X66871428Y-94885714D01*
X66928571Y-94914285D01*
X66957142Y-94942857D01*
X66985714Y-95000000D01*
X66985714Y-95228571D01*
X67271428Y-94314285D02*
X67271428Y-94657142D01*
X67271428Y-94485714D02*
X66671428Y-94485714D01*
X66757142Y-94542857D01*
X66814285Y-94600000D01*
X66842857Y-94657142D01*
X66671428Y-93942857D02*
X66671428Y-93885714D01*
X66700000Y-93828571D01*
X66728571Y-93800000D01*
X66785714Y-93771428D01*
X66900000Y-93742857D01*
X67042857Y-93742857D01*
X67157142Y-93771428D01*
X67214285Y-93800000D01*
X67242857Y-93828571D01*
X67271428Y-93885714D01*
X67271428Y-93942857D01*
X67242857Y-94000000D01*
X67214285Y-94028571D01*
X67157142Y-94057142D01*
X67042857Y-94085714D01*
X66900000Y-94085714D01*
X66785714Y-94057142D01*
X66728571Y-94028571D01*
X66700000Y-94000000D01*
X66671428Y-93942857D01*
%TO.C,R3*%
X70150000Y-85271428D02*
X69950000Y-84985714D01*
X69807142Y-85271428D02*
X69807142Y-84671428D01*
X70035714Y-84671428D01*
X70092857Y-84700000D01*
X70121428Y-84728571D01*
X70150000Y-84785714D01*
X70150000Y-84871428D01*
X70121428Y-84928571D01*
X70092857Y-84957142D01*
X70035714Y-84985714D01*
X69807142Y-84985714D01*
X70350000Y-84671428D02*
X70721428Y-84671428D01*
X70521428Y-84900000D01*
X70607142Y-84900000D01*
X70664285Y-84928571D01*
X70692857Y-84957142D01*
X70721428Y-85014285D01*
X70721428Y-85157142D01*
X70692857Y-85214285D01*
X70664285Y-85242857D01*
X70607142Y-85271428D01*
X70435714Y-85271428D01*
X70378571Y-85242857D01*
X70350000Y-85214285D01*
%TO.C,R4*%
X79650000Y-89021428D02*
X79450000Y-88735714D01*
X79307142Y-89021428D02*
X79307142Y-88421428D01*
X79535714Y-88421428D01*
X79592857Y-88450000D01*
X79621428Y-88478571D01*
X79650000Y-88535714D01*
X79650000Y-88621428D01*
X79621428Y-88678571D01*
X79592857Y-88707142D01*
X79535714Y-88735714D01*
X79307142Y-88735714D01*
X80164285Y-88621428D02*
X80164285Y-89021428D01*
X80021428Y-88392857D02*
X79878571Y-88821428D01*
X80250000Y-88821428D01*
%TO.C,VD5*%
X84214285Y-83321428D02*
X84414285Y-83921428D01*
X84614285Y-83321428D01*
X84814285Y-83921428D02*
X84814285Y-83321428D01*
X84957142Y-83321428D01*
X85042857Y-83350000D01*
X85100000Y-83407142D01*
X85128571Y-83464285D01*
X85157142Y-83578571D01*
X85157142Y-83664285D01*
X85128571Y-83778571D01*
X85100000Y-83835714D01*
X85042857Y-83892857D01*
X84957142Y-83921428D01*
X84814285Y-83921428D01*
X85700000Y-83321428D02*
X85414285Y-83321428D01*
X85385714Y-83607142D01*
X85414285Y-83578571D01*
X85471428Y-83550000D01*
X85614285Y-83550000D01*
X85671428Y-83578571D01*
X85700000Y-83607142D01*
X85728571Y-83664285D01*
X85728571Y-83807142D01*
X85700000Y-83864285D01*
X85671428Y-83892857D01*
X85614285Y-83921428D01*
X85471428Y-83921428D01*
X85414285Y-83892857D01*
X85385714Y-83864285D01*
%TO.C,VT1*%
X61785714Y-92421428D02*
X61985714Y-93021428D01*
X62185714Y-92421428D01*
X62300000Y-92421428D02*
X62642857Y-92421428D01*
X62471428Y-93021428D02*
X62471428Y-92421428D01*
X63157142Y-93021428D02*
X62814285Y-93021428D01*
X62985714Y-93021428D02*
X62985714Y-92421428D01*
X62928571Y-92507142D01*
X62871428Y-92564285D01*
X62814285Y-92592857D01*
%TO.C,R7*%
X79900000Y-84521428D02*
X79700000Y-84235714D01*
X79557142Y-84521428D02*
X79557142Y-83921428D01*
X79785714Y-83921428D01*
X79842857Y-83950000D01*
X79871428Y-83978571D01*
X79900000Y-84035714D01*
X79900000Y-84121428D01*
X79871428Y-84178571D01*
X79842857Y-84207142D01*
X79785714Y-84235714D01*
X79557142Y-84235714D01*
X80100000Y-83921428D02*
X80500000Y-83921428D01*
X80242857Y-84521428D01*
%TO.C,C3*%
X80400000Y-93764285D02*
X80371428Y-93792857D01*
X80285714Y-93821428D01*
X80228571Y-93821428D01*
X80142857Y-93792857D01*
X80085714Y-93735714D01*
X80057142Y-93678571D01*
X80028571Y-93564285D01*
X80028571Y-93478571D01*
X80057142Y-93364285D01*
X80085714Y-93307142D01*
X80142857Y-93250000D01*
X80228571Y-93221428D01*
X80285714Y-93221428D01*
X80371428Y-93250000D01*
X80400000Y-93278571D01*
X80600000Y-93221428D02*
X80971428Y-93221428D01*
X80771428Y-93450000D01*
X80857142Y-93450000D01*
X80914285Y-93478571D01*
X80942857Y-93507142D01*
X80971428Y-93564285D01*
X80971428Y-93707142D01*
X80942857Y-93764285D01*
X80914285Y-93792857D01*
X80857142Y-93821428D01*
X80685714Y-93821428D01*
X80628571Y-93792857D01*
X80600000Y-93764285D01*
%TO.C,R12*%
X69864285Y-76521428D02*
X69664285Y-76235714D01*
X69521428Y-76521428D02*
X69521428Y-75921428D01*
X69750000Y-75921428D01*
X69807142Y-75950000D01*
X69835714Y-75978571D01*
X69864285Y-76035714D01*
X69864285Y-76121428D01*
X69835714Y-76178571D01*
X69807142Y-76207142D01*
X69750000Y-76235714D01*
X69521428Y-76235714D01*
X70435714Y-76521428D02*
X70092857Y-76521428D01*
X70264285Y-76521428D02*
X70264285Y-75921428D01*
X70207142Y-76007142D01*
X70150000Y-76064285D01*
X70092857Y-76092857D01*
X70664285Y-75978571D02*
X70692857Y-75950000D01*
X70750000Y-75921428D01*
X70892857Y-75921428D01*
X70950000Y-75950000D01*
X70978571Y-75978571D01*
X71007142Y-76035714D01*
X71007142Y-76092857D01*
X70978571Y-76178571D01*
X70635714Y-76521428D01*
X71007142Y-76521428D01*
%TO.C,R11*%
X64021428Y-77885714D02*
X63735714Y-78085714D01*
X64021428Y-78228571D02*
X63421428Y-78228571D01*
X63421428Y-78000000D01*
X63450000Y-77942857D01*
X63478571Y-77914285D01*
X63535714Y-77885714D01*
X63621428Y-77885714D01*
X63678571Y-77914285D01*
X63707142Y-77942857D01*
X63735714Y-78000000D01*
X63735714Y-78228571D01*
X64021428Y-77314285D02*
X64021428Y-77657142D01*
X64021428Y-77485714D02*
X63421428Y-77485714D01*
X63507142Y-77542857D01*
X63564285Y-77600000D01*
X63592857Y-77657142D01*
X64021428Y-76742857D02*
X64021428Y-77085714D01*
X64021428Y-76914285D02*
X63421428Y-76914285D01*
X63507142Y-76971428D01*
X63564285Y-77028571D01*
X63592857Y-77085714D01*
%TO.C,VT4*%
X70535714Y-90171428D02*
X70735714Y-90771428D01*
X70935714Y-90171428D01*
X71050000Y-90171428D02*
X71392857Y-90171428D01*
X71221428Y-90771428D02*
X71221428Y-90171428D01*
X71850000Y-90371428D02*
X71850000Y-90771428D01*
X71707142Y-90142857D02*
X71564285Y-90571428D01*
X71935714Y-90571428D01*
%TO.C,DA2*%
X75050000Y-93021428D02*
X75050000Y-92421428D01*
X75192857Y-92421428D01*
X75278571Y-92450000D01*
X75335714Y-92507142D01*
X75364285Y-92564285D01*
X75392857Y-92678571D01*
X75392857Y-92764285D01*
X75364285Y-92878571D01*
X75335714Y-92935714D01*
X75278571Y-92992857D01*
X75192857Y-93021428D01*
X75050000Y-93021428D01*
X75621428Y-92850000D02*
X75907142Y-92850000D01*
X75564285Y-93021428D02*
X75764285Y-92421428D01*
X75964285Y-93021428D01*
X76135714Y-92478571D02*
X76164285Y-92450000D01*
X76221428Y-92421428D01*
X76364285Y-92421428D01*
X76421428Y-92450000D01*
X76450000Y-92478571D01*
X76478571Y-92535714D01*
X76478571Y-92592857D01*
X76450000Y-92678571D01*
X76107142Y-93021428D01*
X76478571Y-93021428D01*
%TO.C,R14*%
X82114285Y-79271428D02*
X81914285Y-78985714D01*
X81771428Y-79271428D02*
X81771428Y-78671428D01*
X82000000Y-78671428D01*
X82057142Y-78700000D01*
X82085714Y-78728571D01*
X82114285Y-78785714D01*
X82114285Y-78871428D01*
X82085714Y-78928571D01*
X82057142Y-78957142D01*
X82000000Y-78985714D01*
X81771428Y-78985714D01*
X82685714Y-79271428D02*
X82342857Y-79271428D01*
X82514285Y-79271428D02*
X82514285Y-78671428D01*
X82457142Y-78757142D01*
X82400000Y-78814285D01*
X82342857Y-78842857D01*
X83200000Y-78871428D02*
X83200000Y-79271428D01*
X83057142Y-78642857D02*
X82914285Y-79071428D01*
X83285714Y-79071428D01*
%TO.C,R5*%
X60150000Y-86271428D02*
X59950000Y-85985714D01*
X59807142Y-86271428D02*
X59807142Y-85671428D01*
X60035714Y-85671428D01*
X60092857Y-85700000D01*
X60121428Y-85728571D01*
X60150000Y-85785714D01*
X60150000Y-85871428D01*
X60121428Y-85928571D01*
X60092857Y-85957142D01*
X60035714Y-85985714D01*
X59807142Y-85985714D01*
X60692857Y-85671428D02*
X60407142Y-85671428D01*
X60378571Y-85957142D01*
X60407142Y-85928571D01*
X60464285Y-85900000D01*
X60607142Y-85900000D01*
X60664285Y-85928571D01*
X60692857Y-85957142D01*
X60721428Y-86014285D01*
X60721428Y-86157142D01*
X60692857Y-86214285D01*
X60664285Y-86242857D01*
X60607142Y-86271428D01*
X60464285Y-86271428D01*
X60407142Y-86242857D01*
X60378571Y-86214285D01*
%TO.C,C4*%
X82900000Y-93714285D02*
X82871428Y-93742857D01*
X82785714Y-93771428D01*
X82728571Y-93771428D01*
X82642857Y-93742857D01*
X82585714Y-93685714D01*
X82557142Y-93628571D01*
X82528571Y-93514285D01*
X82528571Y-93428571D01*
X82557142Y-93314285D01*
X82585714Y-93257142D01*
X82642857Y-93200000D01*
X82728571Y-93171428D01*
X82785714Y-93171428D01*
X82871428Y-93200000D01*
X82900000Y-93228571D01*
X83414285Y-93371428D02*
X83414285Y-93771428D01*
X83271428Y-93142857D02*
X83128571Y-93571428D01*
X83500000Y-93571428D01*
%TO.C,R6*%
X78400000Y-84521428D02*
X78200000Y-84235714D01*
X78057142Y-84521428D02*
X78057142Y-83921428D01*
X78285714Y-83921428D01*
X78342857Y-83950000D01*
X78371428Y-83978571D01*
X78400000Y-84035714D01*
X78400000Y-84121428D01*
X78371428Y-84178571D01*
X78342857Y-84207142D01*
X78285714Y-84235714D01*
X78057142Y-84235714D01*
X78914285Y-83921428D02*
X78800000Y-83921428D01*
X78742857Y-83950000D01*
X78714285Y-83978571D01*
X78657142Y-84064285D01*
X78628571Y-84178571D01*
X78628571Y-84407142D01*
X78657142Y-84464285D01*
X78685714Y-84492857D01*
X78742857Y-84521428D01*
X78857142Y-84521428D01*
X78914285Y-84492857D01*
X78942857Y-84464285D01*
X78971428Y-84407142D01*
X78971428Y-84264285D01*
X78942857Y-84207142D01*
X78914285Y-84178571D01*
X78857142Y-84150000D01*
X78742857Y-84150000D01*
X78685714Y-84178571D01*
X78657142Y-84207142D01*
X78628571Y-84264285D01*
%TO.C,VD4*%
X72990000Y-86830000D02*
X74450000Y-86830000D01*
X72990000Y-83670000D02*
X74450000Y-83670000D01*
X72990000Y-86830000D02*
X72990000Y-85900000D01*
X72990000Y-83670000D02*
X72990000Y-84600000D01*
%TO.C,VD3*%
X72990000Y-91330000D02*
X74450000Y-91330000D01*
X72990000Y-88170000D02*
X74450000Y-88170000D01*
X72990000Y-91330000D02*
X72990000Y-90400000D01*
X72990000Y-88170000D02*
X72990000Y-89100000D01*
%TO.C,R15*%
X82400000Y-92550000D02*
X82400000Y-90950000D01*
X82400000Y-92550000D02*
X82900000Y-92550000D01*
X85600000Y-90950000D02*
X85100000Y-90950000D01*
X85600000Y-92550000D02*
X85100000Y-92550000D01*
X85600000Y-92550000D02*
X85600000Y-90950000D01*
X82400000Y-90950000D02*
X82900000Y-90950000D01*
%TO.C,R13*%
X83950000Y-79650000D02*
X83950000Y-80150000D01*
X83950000Y-79650000D02*
X85550000Y-79650000D01*
X83950000Y-82850000D02*
X85550000Y-82850000D01*
X83950000Y-82850000D02*
X83950000Y-82350000D01*
X85550000Y-79650000D02*
X85550000Y-80150000D01*
X85550000Y-82850000D02*
X85550000Y-82350000D01*
%TO.C,VT3*%
X65760000Y-93080000D02*
X64300000Y-93080000D01*
X65760000Y-93080000D02*
X65760000Y-92150000D01*
X65760000Y-89920000D02*
X64300000Y-89920000D01*
X65760000Y-89920000D02*
X65760000Y-90850000D01*
%TO.C,C2*%
X74900000Y-83300000D02*
X74900000Y-81700000D01*
X74900000Y-81700000D02*
X75400000Y-81700000D01*
X78100000Y-81700000D02*
X77600000Y-81700000D01*
X78100000Y-83300000D02*
X77600000Y-83300000D01*
X74900000Y-83300000D02*
X75400000Y-83300000D01*
X78100000Y-83300000D02*
X78100000Y-81700000D01*
X76375000Y-82750000D02*
X76375000Y-82250000D01*
X76625000Y-82750000D02*
X76625000Y-82250000D01*
%TO.C,R2*%
X64400000Y-85450000D02*
X64400000Y-87050000D01*
X64400000Y-87050000D02*
X64900000Y-87050000D01*
X67600000Y-87050000D02*
X67100000Y-87050000D01*
X67600000Y-85450000D02*
X67600000Y-87050000D01*
X64400000Y-85450000D02*
X64900000Y-85450000D01*
X67600000Y-85450000D02*
X67100000Y-85450000D01*
%TO.C,VD1*%
X66250000Y-88000000D02*
X65500000Y-88500000D01*
X63250000Y-87500000D02*
X63750000Y-87500000D01*
X68000000Y-87500000D02*
X68500000Y-87500000D01*
X68500000Y-89500000D02*
X68000000Y-89500000D01*
X65500000Y-88500000D02*
X66250000Y-89000000D01*
X63250000Y-87500000D02*
X63000000Y-87750000D01*
X66250000Y-89000000D02*
X66250000Y-88000000D01*
X63000000Y-89250000D02*
X63250000Y-89500000D01*
X65500000Y-88000000D02*
X65750000Y-88000000D01*
X65500000Y-89000000D02*
X65500000Y-88000000D01*
X68500000Y-89000000D02*
X68500000Y-89500000D01*
X63000000Y-89250000D02*
X63000000Y-88750000D01*
X63750000Y-89500000D02*
X63250000Y-89500000D01*
X63000000Y-88250000D02*
X63000000Y-87750000D01*
X65000000Y-88500000D02*
X66750000Y-88500000D01*
X68500000Y-88000000D02*
X68500000Y-87500000D01*
%TO.C,VT6*%
X70260000Y-84330000D02*
X70260000Y-83400000D01*
X70260000Y-84330000D02*
X68800000Y-84330000D01*
X70260000Y-81170000D02*
X70260000Y-82100000D01*
X70260000Y-81170000D02*
X68800000Y-81170000D01*
%TO.C,R1*%
X79050000Y-89400000D02*
X79050000Y-89900000D01*
X77450000Y-89400000D02*
X79050000Y-89400000D01*
X77450000Y-92600000D02*
X79050000Y-92600000D01*
X77450000Y-89400000D02*
X77450000Y-89900000D01*
X79050000Y-92600000D02*
X79050000Y-92100000D01*
X77450000Y-92600000D02*
X77450000Y-92100000D01*
%TO.C,R8*%
X58400000Y-92325000D02*
X58400000Y-92825000D01*
X56600000Y-95125000D02*
X56600000Y-94625000D01*
X56600000Y-95125000D02*
X58400000Y-95125000D01*
X56600000Y-92325000D02*
X58400000Y-92325000D01*
X58400000Y-95125000D02*
X58400000Y-94625000D01*
X56600000Y-92325000D02*
X56600000Y-92825000D01*
%TO.C,R16*%
X84200000Y-94150000D02*
X85800000Y-94150000D01*
X85800000Y-94150000D02*
X85800000Y-94650000D01*
X85800000Y-97350000D02*
X85800000Y-96850000D01*
X84200000Y-97350000D02*
X85800000Y-97350000D01*
X84200000Y-94150000D02*
X84200000Y-94650000D01*
X84200000Y-97350000D02*
X84200000Y-96850000D01*
%TO.C,DA3*%
X80731800Y-80734000D02*
X80481800Y-80484000D01*
X74623800Y-81095000D02*
X74623800Y-81295000D01*
X74623800Y-81295000D02*
X75623800Y-81295000D01*
X80481800Y-80484000D02*
X80731800Y-80234000D01*
X78823800Y-76095000D02*
X78823800Y-75895000D01*
X74623800Y-76095000D02*
X74623800Y-75895000D01*
X74623800Y-75895000D02*
X75623800Y-75895000D01*
X80731800Y-80234000D02*
X80731800Y-80734000D01*
X78823800Y-81095000D02*
X78823800Y-81295000D01*
X78823800Y-81295000D02*
X77823800Y-81295000D01*
X78823800Y-75895000D02*
X77823800Y-75895000D01*
%TO.C,VT5*%
X65760000Y-81170000D02*
X65760000Y-82100000D01*
X65760000Y-84330000D02*
X65760000Y-83400000D01*
X65760000Y-81170000D02*
X64300000Y-81170000D01*
X65760000Y-84330000D02*
X64300000Y-84330000D01*
%TO.C,R9*%
X59450000Y-85100000D02*
X59450000Y-84600000D01*
X61050000Y-85100000D02*
X61050000Y-84600000D01*
X59450000Y-85100000D02*
X61050000Y-85100000D01*
X59450000Y-81900000D02*
X61050000Y-81900000D01*
X61050000Y-81900000D02*
X61050000Y-82400000D01*
X59450000Y-81900000D02*
X59450000Y-82400000D01*
%TO.C,VT2*%
X61830000Y-79760000D02*
X60900000Y-79760000D01*
X61830000Y-79760000D02*
X61830000Y-78300000D01*
X58670000Y-79760000D02*
X58670000Y-78300000D01*
X58670000Y-79760000D02*
X59600000Y-79760000D01*
%TO.C,DA1*%
X53155000Y-82606000D02*
X52955000Y-82606000D01*
X52955000Y-86806000D02*
X52955000Y-85806000D01*
X58155000Y-86806000D02*
X58355000Y-86806000D01*
X53766000Y-88464000D02*
X54016000Y-88714000D01*
X53516000Y-88714000D02*
X53766000Y-88464000D01*
X53155000Y-86806000D02*
X52955000Y-86806000D01*
X58355000Y-86806000D02*
X58355000Y-85806000D01*
X52955000Y-82606000D02*
X52955000Y-83606000D01*
X54016000Y-88714000D02*
X53516000Y-88714000D01*
X58355000Y-82606000D02*
X58355000Y-83606000D01*
X58155000Y-82606000D02*
X58355000Y-82606000D01*
%TO.C,VD2*%
X63250000Y-78750000D02*
X63750000Y-78750000D01*
X65500000Y-80250000D02*
X65500000Y-79250000D01*
X68500000Y-80250000D02*
X68500000Y-80750000D01*
X65500000Y-79250000D02*
X65750000Y-79250000D01*
X63250000Y-78750000D02*
X63000000Y-79000000D01*
X63750000Y-80750000D02*
X63250000Y-80750000D01*
X63000000Y-80500000D02*
X63250000Y-80750000D01*
X63000000Y-79500000D02*
X63000000Y-79000000D01*
X68500000Y-79250000D02*
X68500000Y-78750000D01*
X68000000Y-78750000D02*
X68500000Y-78750000D01*
X68500000Y-80750000D02*
X68000000Y-80750000D01*
X65500000Y-79750000D02*
X66250000Y-80250000D01*
X66250000Y-80250000D02*
X66250000Y-79250000D01*
X66250000Y-79250000D02*
X65500000Y-79750000D01*
X63000000Y-80500000D02*
X63000000Y-80000000D01*
X65000000Y-79750000D02*
X66750000Y-79750000D01*
%TO.C,C1*%
X54550000Y-80350000D02*
X52950000Y-80350000D01*
X54550000Y-80350000D02*
X54550000Y-79850000D01*
X54550000Y-77150000D02*
X52950000Y-77150000D01*
X54550000Y-77150000D02*
X54550000Y-77650000D01*
X52950000Y-77150000D02*
X52950000Y-77650000D01*
X52950000Y-80350000D02*
X52950000Y-79850000D01*
X54000000Y-78875000D02*
X53500000Y-78875000D01*
X54000000Y-78625000D02*
X53500000Y-78625000D01*
%TO.C,VD6*%
X82500000Y-86150000D02*
X82500000Y-87900000D01*
X82500000Y-86650000D02*
X82000000Y-87400000D01*
X83500000Y-89150000D02*
X83500000Y-89650000D01*
X82750000Y-84150000D02*
X83250000Y-84150000D01*
X83000000Y-87400000D02*
X82500000Y-86650000D01*
X81500000Y-84900000D02*
X81500000Y-84400000D01*
X81750000Y-84150000D02*
X82250000Y-84150000D01*
X82000000Y-87400000D02*
X83000000Y-87400000D01*
X81750000Y-84150000D02*
X81500000Y-84400000D01*
X83000000Y-86650000D02*
X83000000Y-86900000D01*
X83000000Y-89650000D02*
X83500000Y-89650000D01*
X82000000Y-89650000D02*
X81500000Y-89650000D01*
X83500000Y-84400000D02*
X83250000Y-84150000D01*
X83500000Y-84400000D02*
X83500000Y-84900000D01*
X82000000Y-86650000D02*
X83000000Y-86650000D01*
X81500000Y-89650000D02*
X81500000Y-89150000D01*
%TO.C,R10*%
X70850000Y-95300000D02*
X70850000Y-93700000D01*
X67650000Y-95300000D02*
X67650000Y-93700000D01*
X70850000Y-95300000D02*
X70350000Y-95300000D01*
X67650000Y-95300000D02*
X68150000Y-95300000D01*
X70850000Y-93700000D02*
X70350000Y-93700000D01*
X67650000Y-93700000D02*
X68150000Y-93700000D01*
%TO.C,R3*%
X71050000Y-88850000D02*
X71050000Y-88350000D01*
X69450000Y-85650000D02*
X69450000Y-86150000D01*
X69450000Y-88850000D02*
X69450000Y-88350000D01*
X71050000Y-85650000D02*
X71050000Y-86150000D01*
X69450000Y-88850000D02*
X71050000Y-88850000D01*
X69450000Y-85650000D02*
X71050000Y-85650000D01*
%TO.C,R4*%
X81050000Y-89400000D02*
X81050000Y-89900000D01*
X79450000Y-89400000D02*
X81050000Y-89400000D01*
X79450000Y-92600000D02*
X81050000Y-92600000D01*
X79450000Y-92600000D02*
X79450000Y-92100000D01*
X79450000Y-89400000D02*
X79450000Y-89900000D01*
X81050000Y-92600000D02*
X81050000Y-92100000D01*
%TO.C,VD5*%
X84250000Y-84150000D02*
X84750000Y-84150000D01*
X85000000Y-86150000D02*
X85000000Y-87900000D01*
X84500000Y-89650000D02*
X84000000Y-89650000D01*
X84000000Y-89650000D02*
X84000000Y-89150000D01*
X86000000Y-84400000D02*
X86000000Y-84900000D01*
X84500000Y-87400000D02*
X85500000Y-87400000D01*
X86000000Y-89150000D02*
X86000000Y-89650000D01*
X84500000Y-86650000D02*
X85500000Y-86650000D01*
X86000000Y-84400000D02*
X85750000Y-84150000D01*
X84250000Y-84150000D02*
X84000000Y-84400000D01*
X85500000Y-86650000D02*
X85500000Y-86900000D01*
X85000000Y-86650000D02*
X84500000Y-87400000D01*
X85500000Y-87400000D02*
X85000000Y-86650000D01*
X85250000Y-84150000D02*
X85750000Y-84150000D01*
X84000000Y-84900000D02*
X84000000Y-84400000D01*
X85500000Y-89650000D02*
X86000000Y-89650000D01*
%TO.C,VT1*%
X61510000Y-92170000D02*
X61510000Y-93100000D01*
X61510000Y-95330000D02*
X60050000Y-95330000D01*
X61510000Y-95330000D02*
X61510000Y-94400000D01*
X61510000Y-92170000D02*
X60050000Y-92170000D01*
%TO.C,R7*%
X81050000Y-84900000D02*
X81050000Y-85400000D01*
X79450000Y-88100000D02*
X81050000Y-88100000D01*
X79450000Y-84900000D02*
X79450000Y-85400000D01*
X81050000Y-88100000D02*
X81050000Y-87600000D01*
X79450000Y-88100000D02*
X79450000Y-87600000D01*
X79450000Y-84900000D02*
X81050000Y-84900000D01*
%TO.C,C3*%
X79700000Y-94200000D02*
X79700000Y-94700000D01*
X80250000Y-95925000D02*
X80750000Y-95925000D01*
X81300000Y-94200000D02*
X81300000Y-94700000D01*
X79700000Y-94200000D02*
X81300000Y-94200000D01*
X79700000Y-97400000D02*
X81300000Y-97400000D01*
X80250000Y-95675000D02*
X80750000Y-95675000D01*
X81300000Y-97400000D02*
X81300000Y-96900000D01*
X79700000Y-97400000D02*
X79700000Y-96900000D01*
%TO.C,R12*%
X71050000Y-80100000D02*
X71050000Y-79600000D01*
X71050000Y-80100000D02*
X69450000Y-80100000D01*
X69450000Y-76900000D02*
X69450000Y-77400000D01*
X71050000Y-76900000D02*
X69450000Y-76900000D01*
X71050000Y-76900000D02*
X71050000Y-77400000D01*
X69450000Y-80100000D02*
X69450000Y-79600000D01*
%TO.C,R11*%
X64400000Y-78300000D02*
X64900000Y-78300000D01*
X64400000Y-78300000D02*
X64400000Y-76700000D01*
X64400000Y-76700000D02*
X64900000Y-76700000D01*
X67600000Y-76700000D02*
X67100000Y-76700000D01*
X67600000Y-78300000D02*
X67600000Y-76700000D01*
X67600000Y-78300000D02*
X67100000Y-78300000D01*
%TO.C,VT4*%
X70260000Y-89920000D02*
X70260000Y-90850000D01*
X70260000Y-93080000D02*
X68800000Y-93080000D01*
X70260000Y-93080000D02*
X70260000Y-92150000D01*
X70260000Y-89920000D02*
X68800000Y-89920000D01*
%TO.C,DA2*%
X77876200Y-93250000D02*
X77876200Y-93050000D01*
X71768200Y-94111000D02*
X71768200Y-93611000D01*
X73676200Y-98250000D02*
X73676200Y-98450000D01*
X72018200Y-93861000D02*
X71768200Y-94111000D01*
X77876200Y-98250000D02*
X77876200Y-98450000D01*
X73676200Y-93250000D02*
X73676200Y-93050000D01*
X73676200Y-98450000D02*
X74676200Y-98450000D01*
X71768200Y-93611000D02*
X72018200Y-93861000D01*
X73676200Y-93050000D02*
X74676200Y-93050000D01*
X77876200Y-93050000D02*
X76876200Y-93050000D01*
X77876200Y-98450000D02*
X76876200Y-98450000D01*
%TO.C,R14*%
X81700000Y-82850000D02*
X81700000Y-82350000D01*
X81700000Y-82850000D02*
X83300000Y-82850000D01*
X83300000Y-79650000D02*
X83300000Y-80150000D01*
X81700000Y-79650000D02*
X81700000Y-80150000D01*
X83300000Y-82850000D02*
X83300000Y-82350000D01*
X81700000Y-79650000D02*
X83300000Y-79650000D01*
%TO.C,R5*%
X59450000Y-86650000D02*
X59450000Y-87150000D01*
X59450000Y-86650000D02*
X61050000Y-86650000D01*
X61050000Y-86650000D02*
X61050000Y-87150000D01*
X59450000Y-89850000D02*
X61050000Y-89850000D01*
X61050000Y-89850000D02*
X61050000Y-89350000D01*
X59450000Y-89850000D02*
X59450000Y-89350000D01*
%TO.C,C4*%
X82750000Y-95625000D02*
X83250000Y-95625000D01*
X83800000Y-94150000D02*
X83800000Y-94650000D01*
X83800000Y-97350000D02*
X83800000Y-96850000D01*
X82200000Y-94150000D02*
X83800000Y-94150000D01*
X82200000Y-94150000D02*
X82200000Y-94650000D01*
X82200000Y-97350000D02*
X83800000Y-97350000D01*
X82200000Y-97350000D02*
X82200000Y-96850000D01*
X82750000Y-95875000D02*
X83250000Y-95875000D01*
%TO.C,R6*%
X77450000Y-88100000D02*
X77450000Y-87600000D01*
X79050000Y-84900000D02*
X79050000Y-85400000D01*
X77450000Y-84900000D02*
X79050000Y-84900000D01*
X79050000Y-88100000D02*
X79050000Y-87600000D01*
X77450000Y-84900000D02*
X77450000Y-85400000D01*
X77450000Y-88100000D02*
X79050000Y-88100000D01*
%TD*%
M02*
