%TF.GenerationSoftware,KiCad,Pcbnew,(6.0.7)*%
%TF.CreationDate,2023-04-11T10:27:19+03:00*%
%TF.ProjectId,ITR-3,4954522d-332e-46b6-9963-61645f706362,rev?*%
%TF.SameCoordinates,Original*%
%TF.FileFunction,Copper,L2,Bot*%
%TF.FilePolarity,Positive*%
%FSLAX46Y46*%
G04 Gerber Fmt 4.6, Leading zero omitted, Abs format (unit mm)*
G04 Created by KiCad (PCBNEW (6.0.7)) date 2023-04-11 10:27:19*
%MOMM*%
%LPD*%
G01*
G04 APERTURE LIST*
%TA.AperFunction,ComponentPad*%
%ADD10R,1.700000X1.700000*%
%TD*%
%TA.AperFunction,ComponentPad*%
%ADD11C,1.700000*%
%TD*%
%TA.AperFunction,ComponentPad*%
%ADD12C,1.800000*%
%TD*%
%TA.AperFunction,ComponentPad*%
%ADD13R,1.800000X1.800000*%
%TD*%
%TA.AperFunction,ViaPad*%
%ADD14C,0.800000*%
%TD*%
%TA.AperFunction,Conductor*%
%ADD15C,0.250000*%
%TD*%
G04 APERTURE END LIST*
D10*
%TO.P,X1,4,4*%
%TO.N,GND*%
X87500000Y-85620000D03*
%TO.P,X1,3,3*%
%TO.N,/RSA*%
X87500000Y-83080000D03*
%TO.P,X1,2,2*%
%TO.N,/RSB*%
X87500000Y-80540000D03*
D11*
%TO.P,X1,1,1*%
%TO.N,5V*%
X87500000Y-78000000D03*
%TD*%
D12*
%TO.P,XP1,1A*%
%TO.N,/TX-OUT*%
X52500000Y-90500000D03*
D13*
%TO.P,XP1,2A*%
%TO.N,/RSEN*%
X52500000Y-93040000D03*
%TO.P,XP1,3A*%
%TO.N,/RX-IN*%
X52500000Y-95580000D03*
%TD*%
D14*
%TO.N,5V*%
X75500000Y-93750000D03*
X77000000Y-93750000D03*
X72500000Y-80750000D03*
X71000000Y-80750000D03*
%TO.N,AREF*%
X55000000Y-97500000D03*
X56250000Y-89000000D03*
%TO.N,5V*%
X57250000Y-76250000D03*
X83500000Y-79250000D03*
%TO.N,GND*%
X81500000Y-92750000D03*
X83750000Y-89750000D03*
X76250000Y-90750000D03*
X80500000Y-97750000D03*
X78500000Y-82500000D03*
X81000000Y-76750000D03*
X76250000Y-86500000D03*
X53750000Y-76750000D03*
X85000000Y-97750000D03*
X57500000Y-95500000D03*
X57500000Y-89000000D03*
%TO.N,/DA-A*%
X53750000Y-85750000D03*
X64250000Y-85250000D03*
%TO.N,/TX-OUT*%
X55155000Y-85732200D03*
X57405000Y-83482200D03*
%TO.N,Net-(R10-Pad2)*%
X66750000Y-93000000D03*
X66750000Y-84250000D03*
%TO.N,5V*%
X76250000Y-84250000D03*
X59250000Y-76750000D03*
X76250000Y-88250000D03*
%TO.N,Net-(DA2-Pad6)*%
X77000000Y-96250000D03*
X78750000Y-88750000D03*
%TO.N,Net-(DA2-Pad5)*%
X80750000Y-88750000D03*
X77000000Y-97500000D03*
%TO.N,/BUFB*%
X72500000Y-79250000D03*
X77750000Y-84500000D03*
%TO.N,/BUFA*%
X80750000Y-84500000D03*
X80750000Y-79750000D03*
%TD*%
D15*
%TO.N,5V*%
X84750000Y-78000000D02*
X87500000Y-78000000D01*
X84750000Y-78000000D02*
X83500000Y-79250000D01*
X58750000Y-76250000D02*
X59250000Y-76750000D01*
X57250000Y-76250000D02*
X58750000Y-76250000D01*
%TO.N,/BUFB*%
X72500000Y-79250000D02*
X77750000Y-84500000D01*
%TO.N,/BUFA*%
X80750000Y-84500000D02*
X80750000Y-79750000D01*
%TO.N,5V*%
X77000000Y-93750000D02*
X75500000Y-93750000D01*
%TO.N,Net-(DA2-Pad6)*%
X78750000Y-94500000D02*
X77000000Y-96250000D01*
X78750000Y-88750000D02*
X78750000Y-94500000D01*
%TO.N,Net-(DA2-Pad5)*%
X80750000Y-88750000D02*
X79250000Y-90250000D01*
X79250000Y-95250000D02*
X79250000Y-90250000D01*
X77000000Y-97500000D02*
X79250000Y-95250000D01*
%TO.N,5V*%
X76250000Y-84250000D02*
X75250000Y-85250000D01*
X75250000Y-87250000D02*
X75250000Y-85250000D01*
X76250000Y-88250000D02*
X75250000Y-87250000D01*
X72500000Y-80750000D02*
X71000000Y-80750000D01*
%TO.N,AREF*%
X55000000Y-90250000D02*
X55000000Y-97500000D01*
X55750000Y-89500000D02*
X55000000Y-90250000D01*
X56250000Y-89000000D02*
X55750000Y-89500000D01*
%TO.N,/DA-A*%
X63000000Y-86500000D02*
X64250000Y-85250000D01*
X54500000Y-86500000D02*
X63000000Y-86500000D01*
X53750000Y-85750000D02*
X54500000Y-86500000D01*
%TO.N,/TX-OUT*%
X55155000Y-85732200D02*
X57405000Y-83482200D01*
%TO.N,Net-(R10-Pad2)*%
X66750000Y-84250000D02*
X66750000Y-93000000D01*
%TD*%
%TA.AperFunction,Conductor*%
%TO.N,GND*%
G36*
X56351904Y-75770002D02*
G01*
X56398397Y-75823658D01*
X56408501Y-75893932D01*
X56403616Y-75914935D01*
X56356458Y-76060072D01*
X56336496Y-76250000D01*
X56356458Y-76439928D01*
X56415473Y-76621556D01*
X56418776Y-76627278D01*
X56418777Y-76627279D01*
X56445726Y-76673955D01*
X56510960Y-76786944D01*
X56638747Y-76928866D01*
X56793248Y-77041118D01*
X56799276Y-77043802D01*
X56799278Y-77043803D01*
X56959799Y-77115271D01*
X56967712Y-77118794D01*
X57059955Y-77138401D01*
X57148056Y-77157128D01*
X57148061Y-77157128D01*
X57154513Y-77158500D01*
X57345487Y-77158500D01*
X57351939Y-77157128D01*
X57351944Y-77157128D01*
X57440045Y-77138401D01*
X57532288Y-77118794D01*
X57540201Y-77115271D01*
X57700722Y-77043803D01*
X57700724Y-77043802D01*
X57706752Y-77041118D01*
X57784855Y-76984373D01*
X57855061Y-76933365D01*
X57861253Y-76928866D01*
X57865668Y-76923963D01*
X57870580Y-76919540D01*
X57871705Y-76920789D01*
X57925014Y-76887949D01*
X57958200Y-76883500D01*
X58246579Y-76883500D01*
X58314700Y-76903502D01*
X58361193Y-76957158D01*
X58366412Y-76970563D01*
X58415473Y-77121556D01*
X58418776Y-77127278D01*
X58418777Y-77127279D01*
X58436803Y-77158500D01*
X58510960Y-77286944D01*
X58515378Y-77291851D01*
X58515379Y-77291852D01*
X58590225Y-77374977D01*
X58638747Y-77428866D01*
X58699426Y-77472952D01*
X58784178Y-77534528D01*
X58793248Y-77541118D01*
X58799276Y-77543802D01*
X58799278Y-77543803D01*
X58961681Y-77616109D01*
X58967712Y-77618794D01*
X59061113Y-77638647D01*
X59148056Y-77657128D01*
X59148061Y-77657128D01*
X59154513Y-77658500D01*
X59345487Y-77658500D01*
X59351939Y-77657128D01*
X59351944Y-77657128D01*
X59438887Y-77638647D01*
X59532288Y-77618794D01*
X59538319Y-77616109D01*
X59700722Y-77543803D01*
X59700724Y-77543802D01*
X59706752Y-77541118D01*
X59715823Y-77534528D01*
X59800574Y-77472952D01*
X59861253Y-77428866D01*
X59909775Y-77374977D01*
X59984621Y-77291852D01*
X59984622Y-77291851D01*
X59989040Y-77286944D01*
X60063197Y-77158500D01*
X60081223Y-77127279D01*
X60081224Y-77127278D01*
X60084527Y-77121556D01*
X60143542Y-76939928D01*
X60147371Y-76903502D01*
X60162814Y-76756565D01*
X60163504Y-76750000D01*
X60156364Y-76682069D01*
X60144232Y-76566635D01*
X60144232Y-76566633D01*
X60143542Y-76560072D01*
X60084527Y-76378444D01*
X59989040Y-76213056D01*
X59861253Y-76071134D01*
X59732976Y-75977935D01*
X59689623Y-75921714D01*
X59683548Y-75850978D01*
X59716679Y-75788186D01*
X59778499Y-75753274D01*
X59807038Y-75750000D01*
X86624000Y-75750000D01*
X86692121Y-75770002D01*
X86738614Y-75823658D01*
X86750000Y-75876000D01*
X86750000Y-76801273D01*
X86729998Y-76869394D01*
X86699653Y-76902033D01*
X86608380Y-76970563D01*
X86594965Y-76980635D01*
X86591393Y-76984373D01*
X86454829Y-77127279D01*
X86440629Y-77142138D01*
X86437715Y-77146410D01*
X86437714Y-77146411D01*
X86325095Y-77311504D01*
X86270184Y-77356507D01*
X86221007Y-77366500D01*
X84828767Y-77366500D01*
X84817584Y-77365973D01*
X84810091Y-77364298D01*
X84802165Y-77364547D01*
X84802164Y-77364547D01*
X84742001Y-77366438D01*
X84738043Y-77366500D01*
X84710144Y-77366500D01*
X84706154Y-77367004D01*
X84694320Y-77367936D01*
X84650111Y-77369326D01*
X84642497Y-77371538D01*
X84642492Y-77371539D01*
X84630659Y-77374977D01*
X84611296Y-77378988D01*
X84591203Y-77381526D01*
X84583836Y-77384443D01*
X84583831Y-77384444D01*
X84550092Y-77397802D01*
X84538865Y-77401646D01*
X84496407Y-77413982D01*
X84489581Y-77418019D01*
X84478972Y-77424293D01*
X84461224Y-77432988D01*
X84442383Y-77440448D01*
X84435967Y-77445110D01*
X84435966Y-77445110D01*
X84406613Y-77466436D01*
X84396693Y-77472952D01*
X84365465Y-77491420D01*
X84365462Y-77491422D01*
X84358638Y-77495458D01*
X84344317Y-77509779D01*
X84329284Y-77522619D01*
X84312893Y-77534528D01*
X84307843Y-77540632D01*
X84307838Y-77540637D01*
X84284707Y-77568598D01*
X84276717Y-77577379D01*
X83549499Y-78304596D01*
X83487187Y-78338621D01*
X83460404Y-78341500D01*
X83404513Y-78341500D01*
X83398061Y-78342872D01*
X83398056Y-78342872D01*
X83311112Y-78361353D01*
X83217712Y-78381206D01*
X83211682Y-78383891D01*
X83211681Y-78383891D01*
X83049278Y-78456197D01*
X83049276Y-78456198D01*
X83043248Y-78458882D01*
X82888747Y-78571134D01*
X82884326Y-78576044D01*
X82884325Y-78576045D01*
X82770846Y-78702077D01*
X82760960Y-78713056D01*
X82757659Y-78718774D01*
X82686011Y-78842872D01*
X82665473Y-78878444D01*
X82606458Y-79060072D01*
X82605768Y-79066633D01*
X82605768Y-79066635D01*
X82592986Y-79188255D01*
X82586496Y-79250000D01*
X82606458Y-79439928D01*
X82665473Y-79621556D01*
X82760960Y-79786944D01*
X82888747Y-79928866D01*
X83043248Y-80041118D01*
X83049276Y-80043802D01*
X83049278Y-80043803D01*
X83130931Y-80080157D01*
X83217712Y-80118794D01*
X83311112Y-80138647D01*
X83398056Y-80157128D01*
X83398061Y-80157128D01*
X83404513Y-80158500D01*
X83595487Y-80158500D01*
X83601939Y-80157128D01*
X83601944Y-80157128D01*
X83688888Y-80138647D01*
X83782288Y-80118794D01*
X83869069Y-80080157D01*
X83950722Y-80043803D01*
X83950724Y-80043802D01*
X83956752Y-80041118D01*
X84111253Y-79928866D01*
X84239040Y-79786944D01*
X84334527Y-79621556D01*
X84393542Y-79439928D01*
X84410907Y-79274708D01*
X84437920Y-79209051D01*
X84447122Y-79198782D01*
X84975501Y-78670404D01*
X85037813Y-78636379D01*
X85064596Y-78633500D01*
X86224274Y-78633500D01*
X86292395Y-78653502D01*
X86331707Y-78693665D01*
X86399987Y-78805088D01*
X86546250Y-78973938D01*
X86550230Y-78977242D01*
X86554981Y-78981187D01*
X86594616Y-79040090D01*
X86596113Y-79111071D01*
X86558997Y-79171593D01*
X86518725Y-79196112D01*
X86473527Y-79213056D01*
X86403295Y-79239385D01*
X86286739Y-79326739D01*
X86199385Y-79443295D01*
X86148255Y-79579684D01*
X86141500Y-79641866D01*
X86141500Y-81438134D01*
X86148255Y-81500316D01*
X86199385Y-81636705D01*
X86272630Y-81734435D01*
X86297478Y-81800941D01*
X86282425Y-81870324D01*
X86272632Y-81885562D01*
X86199385Y-81983295D01*
X86148255Y-82119684D01*
X86141500Y-82181866D01*
X86141500Y-83978134D01*
X86148255Y-84040316D01*
X86199385Y-84176705D01*
X86204771Y-84183891D01*
X86272942Y-84274852D01*
X86297790Y-84341358D01*
X86282737Y-84410741D01*
X86272942Y-84425982D01*
X86205214Y-84516351D01*
X86196676Y-84531946D01*
X86151522Y-84652394D01*
X86147895Y-84667649D01*
X86142369Y-84718514D01*
X86142000Y-84725328D01*
X86142000Y-85347885D01*
X86146475Y-85363124D01*
X86147865Y-85364329D01*
X86155548Y-85366000D01*
X86750000Y-85366000D01*
X86750000Y-85874000D01*
X86160116Y-85874000D01*
X86144877Y-85878475D01*
X86143672Y-85879865D01*
X86142001Y-85887548D01*
X86142001Y-86514669D01*
X86142371Y-86521490D01*
X86147895Y-86572352D01*
X86151521Y-86587604D01*
X86196676Y-86708054D01*
X86205214Y-86723649D01*
X86281715Y-86825724D01*
X86294276Y-86838285D01*
X86396351Y-86914786D01*
X86411946Y-86923324D01*
X86532394Y-86968478D01*
X86547649Y-86972105D01*
X86598514Y-86977631D01*
X86605328Y-86978000D01*
X86624000Y-86978000D01*
X86692121Y-86998002D01*
X86738614Y-87051658D01*
X86750000Y-87104000D01*
X86750000Y-99124000D01*
X86729998Y-99192121D01*
X86676342Y-99238614D01*
X86624000Y-99250000D01*
X53376000Y-99250000D01*
X53307879Y-99229998D01*
X53261386Y-99176342D01*
X53250000Y-99124000D01*
X53250000Y-97500000D01*
X54086496Y-97500000D01*
X54106458Y-97689928D01*
X54165473Y-97871556D01*
X54260960Y-98036944D01*
X54388747Y-98178866D01*
X54543248Y-98291118D01*
X54549276Y-98293802D01*
X54549278Y-98293803D01*
X54711681Y-98366109D01*
X54717712Y-98368794D01*
X54811113Y-98388647D01*
X54898056Y-98407128D01*
X54898061Y-98407128D01*
X54904513Y-98408500D01*
X55095487Y-98408500D01*
X55101939Y-98407128D01*
X55101944Y-98407128D01*
X55188887Y-98388647D01*
X55282288Y-98368794D01*
X55288319Y-98366109D01*
X55450722Y-98293803D01*
X55450724Y-98293802D01*
X55456752Y-98291118D01*
X55611253Y-98178866D01*
X55739040Y-98036944D01*
X55834527Y-97871556D01*
X55893542Y-97689928D01*
X55913504Y-97500000D01*
X55893542Y-97310072D01*
X55834527Y-97128444D01*
X55826477Y-97114500D01*
X55753517Y-96988131D01*
X55739040Y-96963056D01*
X55665863Y-96881785D01*
X55635147Y-96817779D01*
X55633500Y-96797476D01*
X55633500Y-93000000D01*
X65836496Y-93000000D01*
X65837186Y-93006565D01*
X65844953Y-93080460D01*
X65856458Y-93189928D01*
X65915473Y-93371556D01*
X66010960Y-93536944D01*
X66015378Y-93541851D01*
X66015379Y-93541852D01*
X66134325Y-93673955D01*
X66138747Y-93678866D01*
X66293248Y-93791118D01*
X66299276Y-93793802D01*
X66299278Y-93793803D01*
X66461681Y-93866109D01*
X66467712Y-93868794D01*
X66561113Y-93888647D01*
X66648056Y-93907128D01*
X66648061Y-93907128D01*
X66654513Y-93908500D01*
X66845487Y-93908500D01*
X66851939Y-93907128D01*
X66851944Y-93907128D01*
X66938887Y-93888647D01*
X67032288Y-93868794D01*
X67038319Y-93866109D01*
X67200722Y-93793803D01*
X67200724Y-93793802D01*
X67206752Y-93791118D01*
X67263346Y-93750000D01*
X74586496Y-93750000D01*
X74587186Y-93756565D01*
X74603011Y-93907128D01*
X74606458Y-93939928D01*
X74665473Y-94121556D01*
X74760960Y-94286944D01*
X74765378Y-94291851D01*
X74765379Y-94291852D01*
X74851905Y-94387949D01*
X74888747Y-94428866D01*
X74894843Y-94433295D01*
X75002955Y-94511843D01*
X75043248Y-94541118D01*
X75049276Y-94543802D01*
X75049278Y-94543803D01*
X75211681Y-94616109D01*
X75217712Y-94618794D01*
X75311113Y-94638647D01*
X75398056Y-94657128D01*
X75398061Y-94657128D01*
X75404513Y-94658500D01*
X75595487Y-94658500D01*
X75601939Y-94657128D01*
X75601944Y-94657128D01*
X75688887Y-94638647D01*
X75782288Y-94618794D01*
X75788319Y-94616109D01*
X75950722Y-94543803D01*
X75950724Y-94543802D01*
X75956752Y-94541118D01*
X75997046Y-94511843D01*
X76105157Y-94433295D01*
X76111253Y-94428866D01*
X76115668Y-94423963D01*
X76120580Y-94419540D01*
X76121705Y-94420789D01*
X76175014Y-94387949D01*
X76208200Y-94383500D01*
X76291800Y-94383500D01*
X76359921Y-94403502D01*
X76379147Y-94419843D01*
X76379420Y-94419540D01*
X76384332Y-94423963D01*
X76388747Y-94428866D01*
X76394843Y-94433295D01*
X76502955Y-94511843D01*
X76543248Y-94541118D01*
X76549276Y-94543802D01*
X76549278Y-94543803D01*
X76711681Y-94616109D01*
X76717712Y-94618794D01*
X76811113Y-94638647D01*
X76898056Y-94657128D01*
X76898061Y-94657128D01*
X76904513Y-94658500D01*
X77095487Y-94658500D01*
X77101939Y-94657128D01*
X77101944Y-94657128D01*
X77188887Y-94638647D01*
X77282288Y-94618794D01*
X77288319Y-94616109D01*
X77450722Y-94543803D01*
X77450724Y-94543802D01*
X77456752Y-94541118D01*
X77464211Y-94535699D01*
X77465643Y-94535188D01*
X77467811Y-94533936D01*
X77468040Y-94534333D01*
X77531079Y-94511843D01*
X77600230Y-94527926D01*
X77649708Y-94578842D01*
X77663805Y-94648425D01*
X77638045Y-94714583D01*
X77627373Y-94726722D01*
X77049498Y-95304597D01*
X76987188Y-95338621D01*
X76960405Y-95341500D01*
X76904513Y-95341500D01*
X76898061Y-95342872D01*
X76898056Y-95342872D01*
X76811113Y-95361353D01*
X76717712Y-95381206D01*
X76711682Y-95383891D01*
X76711681Y-95383891D01*
X76549278Y-95456197D01*
X76549276Y-95456198D01*
X76543248Y-95458882D01*
X76388747Y-95571134D01*
X76384326Y-95576044D01*
X76384325Y-95576045D01*
X76307035Y-95661885D01*
X76260960Y-95713056D01*
X76165473Y-95878444D01*
X76106458Y-96060072D01*
X76086496Y-96250000D01*
X76106458Y-96439928D01*
X76165473Y-96621556D01*
X76260960Y-96786944D01*
X76265380Y-96791852D01*
X76269259Y-96797192D01*
X76267920Y-96798165D01*
X76295050Y-96854696D01*
X76286287Y-96925149D01*
X76268750Y-96952438D01*
X76269259Y-96952808D01*
X76265380Y-96958148D01*
X76260960Y-96963056D01*
X76246483Y-96988131D01*
X76173524Y-97114500D01*
X76165473Y-97128444D01*
X76106458Y-97310072D01*
X76086496Y-97500000D01*
X76106458Y-97689928D01*
X76165473Y-97871556D01*
X76260960Y-98036944D01*
X76388747Y-98178866D01*
X76543248Y-98291118D01*
X76549276Y-98293802D01*
X76549278Y-98293803D01*
X76711681Y-98366109D01*
X76717712Y-98368794D01*
X76811113Y-98388647D01*
X76898056Y-98407128D01*
X76898061Y-98407128D01*
X76904513Y-98408500D01*
X77095487Y-98408500D01*
X77101939Y-98407128D01*
X77101944Y-98407128D01*
X77188887Y-98388647D01*
X77282288Y-98368794D01*
X77288319Y-98366109D01*
X77450722Y-98293803D01*
X77450724Y-98293802D01*
X77456752Y-98291118D01*
X77611253Y-98178866D01*
X77739040Y-98036944D01*
X77834527Y-97871556D01*
X77893542Y-97689928D01*
X77910907Y-97524706D01*
X77937920Y-97459050D01*
X77947122Y-97448782D01*
X79642247Y-95753657D01*
X79650537Y-95746113D01*
X79657018Y-95742000D01*
X79678829Y-95718774D01*
X79703658Y-95692333D01*
X79706413Y-95689491D01*
X79726135Y-95669769D01*
X79728612Y-95666576D01*
X79736317Y-95657555D01*
X79761159Y-95631100D01*
X79766586Y-95625321D01*
X79770407Y-95618371D01*
X79776346Y-95607568D01*
X79787202Y-95591041D01*
X79794757Y-95581302D01*
X79794758Y-95581300D01*
X79799614Y-95575040D01*
X79817174Y-95534460D01*
X79822391Y-95523812D01*
X79839875Y-95492009D01*
X79839876Y-95492007D01*
X79843695Y-95485060D01*
X79848733Y-95465437D01*
X79855137Y-95446734D01*
X79860033Y-95435420D01*
X79860033Y-95435419D01*
X79863181Y-95428145D01*
X79864420Y-95420322D01*
X79864423Y-95420312D01*
X79870099Y-95384476D01*
X79872505Y-95372856D01*
X79881528Y-95337711D01*
X79881528Y-95337710D01*
X79883500Y-95330030D01*
X79883500Y-95309776D01*
X79885051Y-95290065D01*
X79886980Y-95277886D01*
X79888220Y-95270057D01*
X79884059Y-95226038D01*
X79883500Y-95214181D01*
X79883500Y-90564594D01*
X79903502Y-90496473D01*
X79920405Y-90475499D01*
X80700499Y-89695405D01*
X80762811Y-89661379D01*
X80789594Y-89658500D01*
X80845487Y-89658500D01*
X80851939Y-89657128D01*
X80851944Y-89657128D01*
X80943507Y-89637665D01*
X81032288Y-89618794D01*
X81050773Y-89610564D01*
X81200722Y-89543803D01*
X81200724Y-89543802D01*
X81206752Y-89541118D01*
X81361253Y-89428866D01*
X81489040Y-89286944D01*
X81563197Y-89158500D01*
X81581223Y-89127279D01*
X81581224Y-89127278D01*
X81584527Y-89121556D01*
X81643542Y-88939928D01*
X81656501Y-88816635D01*
X81662814Y-88756565D01*
X81663504Y-88750000D01*
X81648280Y-88605151D01*
X81644232Y-88566635D01*
X81644232Y-88566633D01*
X81643542Y-88560072D01*
X81584527Y-88378444D01*
X81489040Y-88213056D01*
X81361253Y-88071134D01*
X81206752Y-87958882D01*
X81200724Y-87956198D01*
X81200722Y-87956197D01*
X81038319Y-87883891D01*
X81038318Y-87883891D01*
X81032288Y-87881206D01*
X80938888Y-87861353D01*
X80851944Y-87842872D01*
X80851939Y-87842872D01*
X80845487Y-87841500D01*
X80654513Y-87841500D01*
X80648061Y-87842872D01*
X80648056Y-87842872D01*
X80561112Y-87861353D01*
X80467712Y-87881206D01*
X80461682Y-87883891D01*
X80461681Y-87883891D01*
X80299278Y-87956197D01*
X80299276Y-87956198D01*
X80293248Y-87958882D01*
X80138747Y-88071134D01*
X80010960Y-88213056D01*
X79915473Y-88378444D01*
X79889576Y-88458148D01*
X79869833Y-88518909D01*
X79829759Y-88577514D01*
X79764363Y-88605151D01*
X79694406Y-88593044D01*
X79642100Y-88545038D01*
X79630167Y-88518909D01*
X79610425Y-88458148D01*
X79584527Y-88378444D01*
X79489040Y-88213056D01*
X79361253Y-88071134D01*
X79206752Y-87958882D01*
X79200724Y-87956198D01*
X79200722Y-87956197D01*
X79038319Y-87883891D01*
X79038318Y-87883891D01*
X79032288Y-87881206D01*
X78938888Y-87861353D01*
X78851944Y-87842872D01*
X78851939Y-87842872D01*
X78845487Y-87841500D01*
X78654513Y-87841500D01*
X78648061Y-87842872D01*
X78648056Y-87842872D01*
X78561112Y-87861353D01*
X78467712Y-87881206D01*
X78461682Y-87883891D01*
X78461681Y-87883891D01*
X78299278Y-87956197D01*
X78299276Y-87956198D01*
X78293248Y-87958882D01*
X78138747Y-88071134D01*
X78010960Y-88213056D01*
X77915473Y-88378444D01*
X77856458Y-88560072D01*
X77855768Y-88566633D01*
X77855768Y-88566635D01*
X77851720Y-88605151D01*
X77836496Y-88750000D01*
X77837186Y-88756565D01*
X77843500Y-88816635D01*
X77856458Y-88939928D01*
X77915473Y-89121556D01*
X77918776Y-89127278D01*
X77918777Y-89127279D01*
X77936803Y-89158500D01*
X78010960Y-89286944D01*
X78084137Y-89368215D01*
X78114853Y-89432221D01*
X78116500Y-89452524D01*
X78116500Y-93450735D01*
X78096498Y-93518856D01*
X78042842Y-93565349D01*
X77972568Y-93575453D01*
X77907988Y-93545959D01*
X77870667Y-93489671D01*
X77836569Y-93384729D01*
X77834527Y-93378444D01*
X77739040Y-93213056D01*
X77718216Y-93189928D01*
X77615675Y-93076045D01*
X77615674Y-93076044D01*
X77611253Y-93071134D01*
X77456752Y-92958882D01*
X77450724Y-92956198D01*
X77450722Y-92956197D01*
X77288319Y-92883891D01*
X77288318Y-92883891D01*
X77282288Y-92881206D01*
X77188887Y-92861353D01*
X77101944Y-92842872D01*
X77101939Y-92842872D01*
X77095487Y-92841500D01*
X76904513Y-92841500D01*
X76898061Y-92842872D01*
X76898056Y-92842872D01*
X76811113Y-92861353D01*
X76717712Y-92881206D01*
X76711682Y-92883891D01*
X76711681Y-92883891D01*
X76549278Y-92956197D01*
X76549276Y-92956198D01*
X76543248Y-92958882D01*
X76388747Y-93071134D01*
X76384332Y-93076037D01*
X76379420Y-93080460D01*
X76378295Y-93079211D01*
X76324986Y-93112051D01*
X76291800Y-93116500D01*
X76208200Y-93116500D01*
X76140079Y-93096498D01*
X76120853Y-93080157D01*
X76120580Y-93080460D01*
X76115668Y-93076037D01*
X76111253Y-93071134D01*
X75956752Y-92958882D01*
X75950724Y-92956198D01*
X75950722Y-92956197D01*
X75788319Y-92883891D01*
X75788318Y-92883891D01*
X75782288Y-92881206D01*
X75688887Y-92861353D01*
X75601944Y-92842872D01*
X75601939Y-92842872D01*
X75595487Y-92841500D01*
X75404513Y-92841500D01*
X75398061Y-92842872D01*
X75398056Y-92842872D01*
X75311113Y-92861353D01*
X75217712Y-92881206D01*
X75211682Y-92883891D01*
X75211681Y-92883891D01*
X75049278Y-92956197D01*
X75049276Y-92956198D01*
X75043248Y-92958882D01*
X74888747Y-93071134D01*
X74884326Y-93076044D01*
X74884325Y-93076045D01*
X74781785Y-93189928D01*
X74760960Y-93213056D01*
X74665473Y-93378444D01*
X74606458Y-93560072D01*
X74605768Y-93566633D01*
X74605768Y-93566635D01*
X74593972Y-93678866D01*
X74586496Y-93750000D01*
X67263346Y-93750000D01*
X67361253Y-93678866D01*
X67365675Y-93673955D01*
X67484621Y-93541852D01*
X67484622Y-93541851D01*
X67489040Y-93536944D01*
X67584527Y-93371556D01*
X67643542Y-93189928D01*
X67655048Y-93080460D01*
X67662814Y-93006565D01*
X67663504Y-93000000D01*
X67651301Y-92883891D01*
X67644232Y-92816635D01*
X67644232Y-92816633D01*
X67643542Y-92810072D01*
X67584527Y-92628444D01*
X67489040Y-92463056D01*
X67415863Y-92381785D01*
X67385147Y-92317779D01*
X67383500Y-92297476D01*
X67383500Y-84952524D01*
X67403502Y-84884403D01*
X67415858Y-84868221D01*
X67489040Y-84786944D01*
X67584527Y-84621556D01*
X67643542Y-84439928D01*
X67648414Y-84393579D01*
X67662814Y-84256565D01*
X67663504Y-84250000D01*
X67656556Y-84183891D01*
X67644232Y-84066635D01*
X67644232Y-84066633D01*
X67643542Y-84060072D01*
X67584527Y-83878444D01*
X67489040Y-83713056D01*
X67361253Y-83571134D01*
X67238846Y-83482200D01*
X67212094Y-83462763D01*
X67212093Y-83462762D01*
X67206752Y-83458882D01*
X67200724Y-83456198D01*
X67200722Y-83456197D01*
X67038319Y-83383891D01*
X67038318Y-83383891D01*
X67032288Y-83381206D01*
X66938887Y-83361353D01*
X66851944Y-83342872D01*
X66851939Y-83342872D01*
X66845487Y-83341500D01*
X66654513Y-83341500D01*
X66648061Y-83342872D01*
X66648056Y-83342872D01*
X66561113Y-83361353D01*
X66467712Y-83381206D01*
X66461682Y-83383891D01*
X66461681Y-83383891D01*
X66299278Y-83456197D01*
X66299276Y-83456198D01*
X66293248Y-83458882D01*
X66287907Y-83462762D01*
X66287906Y-83462763D01*
X66261154Y-83482200D01*
X66138747Y-83571134D01*
X66010960Y-83713056D01*
X65915473Y-83878444D01*
X65856458Y-84060072D01*
X65855768Y-84066633D01*
X65855768Y-84066635D01*
X65843444Y-84183891D01*
X65836496Y-84250000D01*
X65837186Y-84256565D01*
X65851587Y-84393579D01*
X65856458Y-84439928D01*
X65915473Y-84621556D01*
X66010960Y-84786944D01*
X66084137Y-84868215D01*
X66114853Y-84932221D01*
X66116500Y-84952524D01*
X66116500Y-92297476D01*
X66096498Y-92365597D01*
X66084142Y-92381779D01*
X66010960Y-92463056D01*
X65915473Y-92628444D01*
X65856458Y-92810072D01*
X65855768Y-92816633D01*
X65855768Y-92816635D01*
X65848699Y-92883891D01*
X65836496Y-93000000D01*
X55633500Y-93000000D01*
X55633500Y-90564594D01*
X55653502Y-90496473D01*
X55670405Y-90475499D01*
X56200499Y-89945405D01*
X56262811Y-89911379D01*
X56289594Y-89908500D01*
X56345487Y-89908500D01*
X56351939Y-89907128D01*
X56351944Y-89907128D01*
X56438887Y-89888647D01*
X56532288Y-89868794D01*
X56538319Y-89866109D01*
X56700722Y-89793803D01*
X56700724Y-89793802D01*
X56706752Y-89791118D01*
X56757377Y-89754337D01*
X56838489Y-89695405D01*
X56861253Y-89678866D01*
X56989040Y-89536944D01*
X57084527Y-89371556D01*
X57143542Y-89189928D01*
X57146990Y-89157128D01*
X57162814Y-89006565D01*
X57163504Y-89000000D01*
X57157190Y-88939928D01*
X57144232Y-88816635D01*
X57144232Y-88816633D01*
X57143542Y-88810072D01*
X57084527Y-88628444D01*
X57055123Y-88577514D01*
X56992341Y-88468774D01*
X56989040Y-88463056D01*
X56968216Y-88439928D01*
X56865675Y-88326045D01*
X56865674Y-88326044D01*
X56861253Y-88321134D01*
X56706752Y-88208882D01*
X56700724Y-88206198D01*
X56700722Y-88206197D01*
X56538319Y-88133891D01*
X56538318Y-88133891D01*
X56532288Y-88131206D01*
X56438888Y-88111353D01*
X56351944Y-88092872D01*
X56351939Y-88092872D01*
X56345487Y-88091500D01*
X56154513Y-88091500D01*
X56148061Y-88092872D01*
X56148056Y-88092872D01*
X56061112Y-88111353D01*
X55967712Y-88131206D01*
X55961682Y-88133891D01*
X55961681Y-88133891D01*
X55799278Y-88206197D01*
X55799276Y-88206198D01*
X55793248Y-88208882D01*
X55638747Y-88321134D01*
X55634326Y-88326044D01*
X55634325Y-88326045D01*
X55531785Y-88439928D01*
X55510960Y-88463056D01*
X55507659Y-88468774D01*
X55444878Y-88577514D01*
X55415473Y-88628444D01*
X55356458Y-88810072D01*
X55355768Y-88816633D01*
X55355768Y-88816635D01*
X55339093Y-88975292D01*
X55312080Y-89040949D01*
X55302878Y-89051217D01*
X54607747Y-89746348D01*
X54599461Y-89753888D01*
X54592982Y-89758000D01*
X54587557Y-89763777D01*
X54546357Y-89807651D01*
X54543602Y-89810493D01*
X54523865Y-89830230D01*
X54521385Y-89833427D01*
X54513682Y-89842447D01*
X54483414Y-89874679D01*
X54479595Y-89881625D01*
X54479593Y-89881628D01*
X54473652Y-89892434D01*
X54462801Y-89908953D01*
X54450386Y-89924959D01*
X54447241Y-89932228D01*
X54447238Y-89932232D01*
X54432826Y-89965537D01*
X54427609Y-89976187D01*
X54406305Y-90014940D01*
X54404334Y-90022615D01*
X54404334Y-90022616D01*
X54401267Y-90034562D01*
X54394863Y-90053266D01*
X54386819Y-90071855D01*
X54385580Y-90079678D01*
X54385577Y-90079688D01*
X54379901Y-90115524D01*
X54377495Y-90127144D01*
X54366500Y-90169970D01*
X54366500Y-90190224D01*
X54364949Y-90209934D01*
X54361780Y-90229943D01*
X54362526Y-90237835D01*
X54365941Y-90273961D01*
X54366500Y-90285819D01*
X54366500Y-96797476D01*
X54346498Y-96865597D01*
X54334142Y-96881779D01*
X54260960Y-96963056D01*
X54246483Y-96988131D01*
X54173524Y-97114500D01*
X54165473Y-97128444D01*
X54106458Y-97310072D01*
X54086496Y-97500000D01*
X53250000Y-97500000D01*
X53250000Y-97114500D01*
X53270002Y-97046379D01*
X53323658Y-96999886D01*
X53376000Y-96988500D01*
X53448134Y-96988500D01*
X53510316Y-96981745D01*
X53646705Y-96930615D01*
X53763261Y-96843261D01*
X53850615Y-96726705D01*
X53901745Y-96590316D01*
X53908500Y-96528134D01*
X53908500Y-94631866D01*
X53901745Y-94569684D01*
X53850615Y-94433295D01*
X53814842Y-94385563D01*
X53789995Y-94319059D01*
X53805048Y-94249677D01*
X53814837Y-94234444D01*
X53850615Y-94186705D01*
X53901745Y-94050316D01*
X53908500Y-93988134D01*
X53908500Y-92091866D01*
X53901745Y-92029684D01*
X53850615Y-91893295D01*
X53763261Y-91776739D01*
X53646705Y-91689385D01*
X53638296Y-91686233D01*
X53638295Y-91686232D01*
X53579804Y-91664305D01*
X53523039Y-91621664D01*
X53498339Y-91555103D01*
X53513546Y-91485754D01*
X53535093Y-91457073D01*
X53572636Y-91419660D01*
X53572640Y-91419655D01*
X53576303Y-91416005D01*
X53711458Y-91227917D01*
X53814078Y-91020280D01*
X53881408Y-90798671D01*
X53911640Y-90569041D01*
X53913327Y-90500000D01*
X53907032Y-90423434D01*
X53894773Y-90274318D01*
X53894772Y-90274312D01*
X53894349Y-90269167D01*
X53855757Y-90115524D01*
X53839184Y-90049544D01*
X53839183Y-90049540D01*
X53837925Y-90044533D01*
X53835866Y-90039797D01*
X53747630Y-89836868D01*
X53747628Y-89836865D01*
X53745570Y-89832131D01*
X53619764Y-89637665D01*
X53463887Y-89466358D01*
X53459836Y-89463159D01*
X53459832Y-89463155D01*
X53297908Y-89335276D01*
X53256845Y-89277359D01*
X53250000Y-89236394D01*
X53250000Y-86715886D01*
X53270002Y-86647765D01*
X53323658Y-86601272D01*
X53393932Y-86591168D01*
X53427248Y-86600779D01*
X53461677Y-86616108D01*
X53461685Y-86616111D01*
X53467712Y-86618794D01*
X53561113Y-86638647D01*
X53648056Y-86657128D01*
X53648061Y-86657128D01*
X53654513Y-86658500D01*
X53710406Y-86658500D01*
X53778527Y-86678502D01*
X53799501Y-86695405D01*
X53996343Y-86892247D01*
X54003887Y-86900537D01*
X54008000Y-86907018D01*
X54013777Y-86912443D01*
X54057667Y-86953658D01*
X54060509Y-86956413D01*
X54080230Y-86976134D01*
X54083425Y-86978612D01*
X54092447Y-86986318D01*
X54124679Y-87016586D01*
X54131628Y-87020406D01*
X54142432Y-87026346D01*
X54158956Y-87037199D01*
X54174959Y-87049613D01*
X54215543Y-87067176D01*
X54226173Y-87072383D01*
X54264940Y-87093695D01*
X54272617Y-87095666D01*
X54272622Y-87095668D01*
X54284558Y-87098732D01*
X54303266Y-87105137D01*
X54321855Y-87113181D01*
X54329683Y-87114421D01*
X54329690Y-87114423D01*
X54365524Y-87120099D01*
X54377144Y-87122505D01*
X54408959Y-87130673D01*
X54419970Y-87133500D01*
X54440224Y-87133500D01*
X54459934Y-87135051D01*
X54479943Y-87138220D01*
X54487835Y-87137474D01*
X54506580Y-87135702D01*
X54523962Y-87134059D01*
X54535819Y-87133500D01*
X62921233Y-87133500D01*
X62932416Y-87134027D01*
X62939909Y-87135702D01*
X62947835Y-87135453D01*
X62947836Y-87135453D01*
X63007986Y-87133562D01*
X63011945Y-87133500D01*
X63039856Y-87133500D01*
X63043791Y-87133003D01*
X63043856Y-87132995D01*
X63055693Y-87132062D01*
X63087951Y-87131048D01*
X63091970Y-87130922D01*
X63099889Y-87130673D01*
X63119343Y-87125021D01*
X63138700Y-87121013D01*
X63150930Y-87119468D01*
X63150931Y-87119468D01*
X63158797Y-87118474D01*
X63166168Y-87115555D01*
X63166170Y-87115555D01*
X63199912Y-87102196D01*
X63211142Y-87098351D01*
X63245983Y-87088229D01*
X63245984Y-87088229D01*
X63253593Y-87086018D01*
X63260412Y-87081985D01*
X63260417Y-87081983D01*
X63271028Y-87075707D01*
X63288776Y-87067012D01*
X63307617Y-87059552D01*
X63318483Y-87051658D01*
X63343387Y-87033564D01*
X63353307Y-87027048D01*
X63384535Y-87008580D01*
X63384538Y-87008578D01*
X63391362Y-87004542D01*
X63405683Y-86990221D01*
X63420717Y-86977380D01*
X63422432Y-86976134D01*
X63437107Y-86965472D01*
X63442157Y-86959368D01*
X63442162Y-86959363D01*
X63465293Y-86931402D01*
X63473283Y-86922621D01*
X64200501Y-86195404D01*
X64262813Y-86161379D01*
X64289596Y-86158500D01*
X64345487Y-86158500D01*
X64351939Y-86157128D01*
X64351944Y-86157128D01*
X64438888Y-86138647D01*
X64532288Y-86118794D01*
X64538319Y-86116109D01*
X64700722Y-86043803D01*
X64700724Y-86043802D01*
X64706752Y-86041118D01*
X64861253Y-85928866D01*
X64920000Y-85863621D01*
X64984621Y-85791852D01*
X64984622Y-85791851D01*
X64989040Y-85786944D01*
X65084527Y-85621556D01*
X65143542Y-85439928D01*
X65146990Y-85407128D01*
X65162814Y-85256565D01*
X65163504Y-85250000D01*
X65155926Y-85177899D01*
X65144232Y-85066635D01*
X65144232Y-85066633D01*
X65143542Y-85060072D01*
X65084527Y-84878444D01*
X65063990Y-84842872D01*
X64992341Y-84718774D01*
X64989040Y-84713056D01*
X64968216Y-84689928D01*
X64865675Y-84576045D01*
X64865674Y-84576044D01*
X64861253Y-84571134D01*
X64706752Y-84458882D01*
X64700724Y-84456198D01*
X64700722Y-84456197D01*
X64538319Y-84383891D01*
X64538318Y-84383891D01*
X64532288Y-84381206D01*
X64438888Y-84361353D01*
X64351944Y-84342872D01*
X64351939Y-84342872D01*
X64345487Y-84341500D01*
X64154513Y-84341500D01*
X64148061Y-84342872D01*
X64148056Y-84342872D01*
X64061112Y-84361353D01*
X63967712Y-84381206D01*
X63961682Y-84383891D01*
X63961681Y-84383891D01*
X63799278Y-84456197D01*
X63799276Y-84456198D01*
X63793248Y-84458882D01*
X63638747Y-84571134D01*
X63634326Y-84576044D01*
X63634325Y-84576045D01*
X63531785Y-84689928D01*
X63510960Y-84713056D01*
X63507659Y-84718774D01*
X63436011Y-84842872D01*
X63415473Y-84878444D01*
X63356458Y-85060072D01*
X63355768Y-85066633D01*
X63355768Y-85066635D01*
X63339093Y-85225292D01*
X63312080Y-85290949D01*
X63302878Y-85301218D01*
X62774499Y-85829596D01*
X62712187Y-85863621D01*
X62685404Y-85866500D01*
X56220794Y-85866500D01*
X56152673Y-85846498D01*
X56106180Y-85792842D01*
X56096076Y-85722568D01*
X56125570Y-85657988D01*
X56131699Y-85651405D01*
X57355499Y-84427605D01*
X57417811Y-84393579D01*
X57444594Y-84390700D01*
X57500487Y-84390700D01*
X57506939Y-84389328D01*
X57506944Y-84389328D01*
X57593887Y-84370847D01*
X57687288Y-84350994D01*
X57693319Y-84348309D01*
X57855722Y-84276003D01*
X57855724Y-84276002D01*
X57861752Y-84273318D01*
X57884811Y-84256565D01*
X57984837Y-84183891D01*
X58016253Y-84161066D01*
X58144040Y-84019144D01*
X58239527Y-83853756D01*
X58298542Y-83672128D01*
X58318504Y-83482200D01*
X58310766Y-83408574D01*
X58299232Y-83298835D01*
X58299232Y-83298833D01*
X58298542Y-83292272D01*
X58239527Y-83110644D01*
X58144040Y-82945256D01*
X58016253Y-82803334D01*
X57861752Y-82691082D01*
X57855724Y-82688398D01*
X57855722Y-82688397D01*
X57693319Y-82616091D01*
X57693318Y-82616091D01*
X57687288Y-82613406D01*
X57593887Y-82593553D01*
X57506944Y-82575072D01*
X57506939Y-82575072D01*
X57500487Y-82573700D01*
X57309513Y-82573700D01*
X57303061Y-82575072D01*
X57303056Y-82575072D01*
X57216113Y-82593553D01*
X57122712Y-82613406D01*
X57116682Y-82616091D01*
X57116681Y-82616091D01*
X56954278Y-82688397D01*
X56954276Y-82688398D01*
X56948248Y-82691082D01*
X56793747Y-82803334D01*
X56665960Y-82945256D01*
X56570473Y-83110644D01*
X56511458Y-83292272D01*
X56510768Y-83298833D01*
X56510768Y-83298835D01*
X56494093Y-83457493D01*
X56467080Y-83523150D01*
X56457878Y-83533418D01*
X55204500Y-84786795D01*
X55142188Y-84820821D01*
X55115405Y-84823700D01*
X55059513Y-84823700D01*
X55053061Y-84825072D01*
X55053056Y-84825072D01*
X54975771Y-84841500D01*
X54872712Y-84863406D01*
X54866682Y-84866091D01*
X54866681Y-84866091D01*
X54704278Y-84938397D01*
X54704276Y-84938398D01*
X54698248Y-84941082D01*
X54692907Y-84944962D01*
X54692906Y-84944963D01*
X54574176Y-85031226D01*
X54543747Y-85053334D01*
X54539333Y-85058236D01*
X54539331Y-85058238D01*
X54537038Y-85060785D01*
X54535342Y-85061830D01*
X54534420Y-85062660D01*
X54534268Y-85062492D01*
X54476594Y-85098027D01*
X54405610Y-85096678D01*
X54361653Y-85071578D01*
X54361253Y-85071134D01*
X54352233Y-85064580D01*
X54212094Y-84962763D01*
X54212093Y-84962762D01*
X54206752Y-84958882D01*
X54200724Y-84956198D01*
X54200722Y-84956197D01*
X54038319Y-84883891D01*
X54038318Y-84883891D01*
X54032288Y-84881206D01*
X53938887Y-84861353D01*
X53851944Y-84842872D01*
X53851939Y-84842872D01*
X53845487Y-84841500D01*
X53654513Y-84841500D01*
X53648061Y-84842872D01*
X53648056Y-84842872D01*
X53561113Y-84861353D01*
X53467712Y-84881206D01*
X53461685Y-84883889D01*
X53461677Y-84883892D01*
X53427248Y-84899221D01*
X53356881Y-84908655D01*
X53292584Y-84878548D01*
X53254771Y-84818459D01*
X53250000Y-84784114D01*
X53250000Y-80750000D01*
X70086496Y-80750000D01*
X70106458Y-80939928D01*
X70165473Y-81121556D01*
X70260960Y-81286944D01*
X70388747Y-81428866D01*
X70543248Y-81541118D01*
X70549276Y-81543802D01*
X70549278Y-81543803D01*
X70711681Y-81616109D01*
X70717712Y-81618794D01*
X70801976Y-81636705D01*
X70898056Y-81657128D01*
X70898061Y-81657128D01*
X70904513Y-81658500D01*
X71095487Y-81658500D01*
X71101939Y-81657128D01*
X71101944Y-81657128D01*
X71198024Y-81636705D01*
X71282288Y-81618794D01*
X71288319Y-81616109D01*
X71450722Y-81543803D01*
X71450724Y-81543802D01*
X71456752Y-81541118D01*
X71611253Y-81428866D01*
X71615668Y-81423963D01*
X71620580Y-81419540D01*
X71621705Y-81420789D01*
X71675014Y-81387949D01*
X71708200Y-81383500D01*
X71791800Y-81383500D01*
X71859921Y-81403502D01*
X71879147Y-81419843D01*
X71879420Y-81419540D01*
X71884332Y-81423963D01*
X71888747Y-81428866D01*
X72043248Y-81541118D01*
X72049276Y-81543802D01*
X72049278Y-81543803D01*
X72211681Y-81616109D01*
X72217712Y-81618794D01*
X72301976Y-81636705D01*
X72398056Y-81657128D01*
X72398061Y-81657128D01*
X72404513Y-81658500D01*
X72595487Y-81658500D01*
X72601939Y-81657128D01*
X72601944Y-81657128D01*
X72698024Y-81636705D01*
X72782288Y-81618794D01*
X72788319Y-81616109D01*
X72950722Y-81543803D01*
X72950724Y-81543802D01*
X72956752Y-81541118D01*
X73111253Y-81428866D01*
X73239040Y-81286944D01*
X73304080Y-81174292D01*
X73355463Y-81125299D01*
X73425177Y-81111864D01*
X73491088Y-81138251D01*
X73502294Y-81148198D01*
X75700358Y-83346262D01*
X75734384Y-83408574D01*
X75729319Y-83479389D01*
X75685325Y-83537292D01*
X75644094Y-83567249D01*
X75638747Y-83571134D01*
X75510960Y-83713056D01*
X75415473Y-83878444D01*
X75356458Y-84060072D01*
X75355768Y-84066633D01*
X75355768Y-84066635D01*
X75339093Y-84225292D01*
X75312080Y-84290949D01*
X75302879Y-84301217D01*
X75072149Y-84531946D01*
X74857742Y-84746353D01*
X74849463Y-84753887D01*
X74842982Y-84758000D01*
X74821172Y-84781226D01*
X74796357Y-84807651D01*
X74793602Y-84810493D01*
X74773865Y-84830230D01*
X74771385Y-84833427D01*
X74763682Y-84842447D01*
X74733414Y-84874679D01*
X74729595Y-84881625D01*
X74729593Y-84881628D01*
X74723652Y-84892434D01*
X74712801Y-84908953D01*
X74700386Y-84924959D01*
X74697241Y-84932228D01*
X74697238Y-84932232D01*
X74682826Y-84965537D01*
X74677609Y-84976187D01*
X74656305Y-85014940D01*
X74654334Y-85022615D01*
X74654334Y-85022616D01*
X74651267Y-85034562D01*
X74644863Y-85053266D01*
X74642712Y-85058238D01*
X74636819Y-85071855D01*
X74635580Y-85079678D01*
X74635577Y-85079688D01*
X74629901Y-85115524D01*
X74627495Y-85127144D01*
X74616500Y-85169970D01*
X74616500Y-85190224D01*
X74614949Y-85209934D01*
X74611780Y-85229943D01*
X74612526Y-85237835D01*
X74615941Y-85273961D01*
X74616500Y-85285819D01*
X74616500Y-87171233D01*
X74615973Y-87182416D01*
X74614298Y-87189909D01*
X74614547Y-87197835D01*
X74614547Y-87197836D01*
X74616438Y-87257986D01*
X74616500Y-87261945D01*
X74616500Y-87289856D01*
X74616997Y-87293790D01*
X74616997Y-87293791D01*
X74617005Y-87293856D01*
X74617938Y-87305693D01*
X74619327Y-87349889D01*
X74624978Y-87369339D01*
X74628987Y-87388700D01*
X74631526Y-87408797D01*
X74634445Y-87416168D01*
X74634445Y-87416170D01*
X74647804Y-87449912D01*
X74651649Y-87461142D01*
X74663982Y-87503593D01*
X74668015Y-87510412D01*
X74668017Y-87510417D01*
X74674293Y-87521028D01*
X74682988Y-87538776D01*
X74690448Y-87557617D01*
X74695110Y-87564033D01*
X74695110Y-87564034D01*
X74716436Y-87593387D01*
X74722952Y-87603307D01*
X74745458Y-87641362D01*
X74759779Y-87655683D01*
X74772619Y-87670716D01*
X74784528Y-87687107D01*
X74790634Y-87692158D01*
X74818605Y-87715298D01*
X74827384Y-87723288D01*
X75302878Y-88198782D01*
X75336904Y-88261094D01*
X75339092Y-88274703D01*
X75356458Y-88439928D01*
X75415473Y-88621556D01*
X75510960Y-88786944D01*
X75515378Y-88791851D01*
X75515379Y-88791852D01*
X75537694Y-88816635D01*
X75638747Y-88928866D01*
X75793248Y-89041118D01*
X75799276Y-89043802D01*
X75799278Y-89043803D01*
X75959799Y-89115271D01*
X75967712Y-89118794D01*
X76037190Y-89133562D01*
X76148056Y-89157128D01*
X76148061Y-89157128D01*
X76154513Y-89158500D01*
X76345487Y-89158500D01*
X76351939Y-89157128D01*
X76351944Y-89157128D01*
X76462810Y-89133562D01*
X76532288Y-89118794D01*
X76540201Y-89115271D01*
X76700722Y-89043803D01*
X76700724Y-89043802D01*
X76706752Y-89041118D01*
X76861253Y-88928866D01*
X76962306Y-88816635D01*
X76984621Y-88791852D01*
X76984622Y-88791851D01*
X76989040Y-88786944D01*
X77084527Y-88621556D01*
X77143542Y-88439928D01*
X77155512Y-88326045D01*
X77162814Y-88256565D01*
X77163504Y-88250000D01*
X77151301Y-88133891D01*
X77144232Y-88066635D01*
X77144232Y-88066633D01*
X77143542Y-88060072D01*
X77084527Y-87878444D01*
X77063990Y-87842872D01*
X76992341Y-87718774D01*
X76989040Y-87713056D01*
X76970224Y-87692158D01*
X76865675Y-87576045D01*
X76865674Y-87576044D01*
X76861253Y-87571134D01*
X76706752Y-87458882D01*
X76700724Y-87456198D01*
X76700722Y-87456197D01*
X76538319Y-87383891D01*
X76538318Y-87383891D01*
X76532288Y-87381206D01*
X76420747Y-87357497D01*
X76351944Y-87342872D01*
X76351939Y-87342872D01*
X76345487Y-87341500D01*
X76289595Y-87341500D01*
X76221474Y-87321498D01*
X76200499Y-87304595D01*
X75920404Y-87024499D01*
X75886379Y-86962187D01*
X75883500Y-86935404D01*
X75883500Y-85564594D01*
X75903502Y-85496473D01*
X75920405Y-85475499D01*
X76200499Y-85195405D01*
X76262811Y-85161379D01*
X76289594Y-85158500D01*
X76345487Y-85158500D01*
X76351939Y-85157128D01*
X76351944Y-85157128D01*
X76438888Y-85138647D01*
X76532288Y-85118794D01*
X76620122Y-85079688D01*
X76700722Y-85043803D01*
X76700724Y-85043802D01*
X76706752Y-85041118D01*
X76809550Y-84966431D01*
X76876416Y-84942573D01*
X76945568Y-84958653D01*
X76992729Y-85005367D01*
X77010960Y-85036944D01*
X77015378Y-85041851D01*
X77015379Y-85041852D01*
X77092176Y-85127144D01*
X77138747Y-85178866D01*
X77198273Y-85222114D01*
X77285955Y-85285819D01*
X77293248Y-85291118D01*
X77299276Y-85293802D01*
X77299278Y-85293803D01*
X77461681Y-85366109D01*
X77467712Y-85368794D01*
X77561113Y-85388647D01*
X77648056Y-85407128D01*
X77648061Y-85407128D01*
X77654513Y-85408500D01*
X77845487Y-85408500D01*
X77851939Y-85407128D01*
X77851944Y-85407128D01*
X77938887Y-85388647D01*
X78032288Y-85368794D01*
X78038319Y-85366109D01*
X78200722Y-85293803D01*
X78200724Y-85293802D01*
X78206752Y-85291118D01*
X78214046Y-85285819D01*
X78301727Y-85222114D01*
X78361253Y-85178866D01*
X78407824Y-85127144D01*
X78484621Y-85041852D01*
X78484622Y-85041851D01*
X78489040Y-85036944D01*
X78577405Y-84883892D01*
X78581223Y-84877279D01*
X78581224Y-84877278D01*
X78584527Y-84871556D01*
X78643542Y-84689928D01*
X78655512Y-84576045D01*
X78662814Y-84506565D01*
X78663504Y-84500000D01*
X79836496Y-84500000D01*
X79837186Y-84506565D01*
X79844489Y-84576045D01*
X79856458Y-84689928D01*
X79915473Y-84871556D01*
X79918776Y-84877278D01*
X79918777Y-84877279D01*
X79922595Y-84883892D01*
X80010960Y-85036944D01*
X80015378Y-85041851D01*
X80015379Y-85041852D01*
X80092176Y-85127144D01*
X80138747Y-85178866D01*
X80198273Y-85222114D01*
X80285955Y-85285819D01*
X80293248Y-85291118D01*
X80299276Y-85293802D01*
X80299278Y-85293803D01*
X80461681Y-85366109D01*
X80467712Y-85368794D01*
X80561113Y-85388647D01*
X80648056Y-85407128D01*
X80648061Y-85407128D01*
X80654513Y-85408500D01*
X80845487Y-85408500D01*
X80851939Y-85407128D01*
X80851944Y-85407128D01*
X80938887Y-85388647D01*
X81032288Y-85368794D01*
X81038319Y-85366109D01*
X81200722Y-85293803D01*
X81200724Y-85293802D01*
X81206752Y-85291118D01*
X81214046Y-85285819D01*
X81301727Y-85222114D01*
X81361253Y-85178866D01*
X81407824Y-85127144D01*
X81484621Y-85041852D01*
X81484622Y-85041851D01*
X81489040Y-85036944D01*
X81577405Y-84883892D01*
X81581223Y-84877279D01*
X81581224Y-84877278D01*
X81584527Y-84871556D01*
X81643542Y-84689928D01*
X81655512Y-84576045D01*
X81662814Y-84506565D01*
X81663504Y-84500000D01*
X81657040Y-84438500D01*
X81644232Y-84316635D01*
X81644232Y-84316633D01*
X81643542Y-84310072D01*
X81584527Y-84128444D01*
X81489040Y-83963056D01*
X81415863Y-83881785D01*
X81385147Y-83817779D01*
X81383500Y-83797476D01*
X81383500Y-80452524D01*
X81403502Y-80384403D01*
X81415858Y-80368221D01*
X81489040Y-80286944D01*
X81563197Y-80158500D01*
X81581223Y-80127279D01*
X81581224Y-80127278D01*
X81584527Y-80121556D01*
X81643542Y-79939928D01*
X81663504Y-79750000D01*
X81643542Y-79560072D01*
X81584527Y-79378444D01*
X81489040Y-79213056D01*
X81397213Y-79111071D01*
X81365675Y-79076045D01*
X81365674Y-79076044D01*
X81361253Y-79071134D01*
X81206752Y-78958882D01*
X81200724Y-78956198D01*
X81200722Y-78956197D01*
X81038319Y-78883891D01*
X81038318Y-78883891D01*
X81032288Y-78881206D01*
X80938887Y-78861353D01*
X80851944Y-78842872D01*
X80851939Y-78842872D01*
X80845487Y-78841500D01*
X80654513Y-78841500D01*
X80648061Y-78842872D01*
X80648056Y-78842872D01*
X80561113Y-78861353D01*
X80467712Y-78881206D01*
X80461682Y-78883891D01*
X80461681Y-78883891D01*
X80299278Y-78956197D01*
X80299276Y-78956198D01*
X80293248Y-78958882D01*
X80138747Y-79071134D01*
X80134326Y-79076044D01*
X80134325Y-79076045D01*
X80102788Y-79111071D01*
X80010960Y-79213056D01*
X79915473Y-79378444D01*
X79856458Y-79560072D01*
X79836496Y-79750000D01*
X79856458Y-79939928D01*
X79915473Y-80121556D01*
X79918776Y-80127278D01*
X79918777Y-80127279D01*
X79936803Y-80158500D01*
X80010960Y-80286944D01*
X80084137Y-80368215D01*
X80114853Y-80432221D01*
X80116500Y-80452524D01*
X80116500Y-83797476D01*
X80096498Y-83865597D01*
X80084142Y-83881779D01*
X80010960Y-83963056D01*
X79915473Y-84128444D01*
X79856458Y-84310072D01*
X79855768Y-84316633D01*
X79855768Y-84316635D01*
X79842960Y-84438500D01*
X79836496Y-84500000D01*
X78663504Y-84500000D01*
X78657040Y-84438500D01*
X78644232Y-84316635D01*
X78644232Y-84316633D01*
X78643542Y-84310072D01*
X78584527Y-84128444D01*
X78489040Y-83963056D01*
X78361253Y-83821134D01*
X78206752Y-83708882D01*
X78200724Y-83706198D01*
X78200722Y-83706197D01*
X78038319Y-83633891D01*
X78038318Y-83633891D01*
X78032288Y-83631206D01*
X77938887Y-83611353D01*
X77851944Y-83592872D01*
X77851939Y-83592872D01*
X77845487Y-83591500D01*
X77789595Y-83591500D01*
X77721474Y-83571498D01*
X77700500Y-83554595D01*
X73447122Y-79301217D01*
X73413096Y-79238905D01*
X73410907Y-79225292D01*
X73394232Y-79066635D01*
X73394232Y-79066633D01*
X73393542Y-79060072D01*
X73334527Y-78878444D01*
X73313990Y-78842872D01*
X73242341Y-78718774D01*
X73239040Y-78713056D01*
X73229155Y-78702077D01*
X73115675Y-78576045D01*
X73115674Y-78576044D01*
X73111253Y-78571134D01*
X72956752Y-78458882D01*
X72950724Y-78456198D01*
X72950722Y-78456197D01*
X72788319Y-78383891D01*
X72788318Y-78383891D01*
X72782288Y-78381206D01*
X72688888Y-78361353D01*
X72601944Y-78342872D01*
X72601939Y-78342872D01*
X72595487Y-78341500D01*
X72404513Y-78341500D01*
X72398061Y-78342872D01*
X72398056Y-78342872D01*
X72311112Y-78361353D01*
X72217712Y-78381206D01*
X72211682Y-78383891D01*
X72211681Y-78383891D01*
X72049278Y-78456197D01*
X72049276Y-78456198D01*
X72043248Y-78458882D01*
X71888747Y-78571134D01*
X71884326Y-78576044D01*
X71884325Y-78576045D01*
X71770846Y-78702077D01*
X71760960Y-78713056D01*
X71757659Y-78718774D01*
X71686011Y-78842872D01*
X71665473Y-78878444D01*
X71606458Y-79060072D01*
X71605768Y-79066633D01*
X71605768Y-79066635D01*
X71592986Y-79188255D01*
X71586496Y-79250000D01*
X71606458Y-79439928D01*
X71665473Y-79621556D01*
X71760960Y-79786944D01*
X71765378Y-79791851D01*
X71765379Y-79791852D01*
X71868329Y-79906190D01*
X71899047Y-79970197D01*
X71890282Y-80040651D01*
X71844819Y-80095182D01*
X71774693Y-80116500D01*
X71708200Y-80116500D01*
X71640079Y-80096498D01*
X71620853Y-80080157D01*
X71620580Y-80080460D01*
X71615668Y-80076037D01*
X71611253Y-80071134D01*
X71456752Y-79958882D01*
X71450724Y-79956198D01*
X71450722Y-79956197D01*
X71288319Y-79883891D01*
X71288318Y-79883891D01*
X71282288Y-79881206D01*
X71188887Y-79861353D01*
X71101944Y-79842872D01*
X71101939Y-79842872D01*
X71095487Y-79841500D01*
X70904513Y-79841500D01*
X70898061Y-79842872D01*
X70898056Y-79842872D01*
X70811113Y-79861353D01*
X70717712Y-79881206D01*
X70711682Y-79883891D01*
X70711681Y-79883891D01*
X70549278Y-79956197D01*
X70549276Y-79956198D01*
X70543248Y-79958882D01*
X70388747Y-80071134D01*
X70260960Y-80213056D01*
X70165473Y-80378444D01*
X70106458Y-80560072D01*
X70086496Y-80750000D01*
X53250000Y-80750000D01*
X53250000Y-75876000D01*
X53270002Y-75807879D01*
X53323658Y-75761386D01*
X53376000Y-75750000D01*
X56283783Y-75750000D01*
X56351904Y-75770002D01*
G37*
%TD.AperFunction*%
%TD*%
M02*
